<svg xmlns="http://www.w3.org/2000/svg" width="27.713" height="24" viewBox="0 0 48 41.569">
  <defs>
    <style>
      .a {
        fill: #41a4ed;
      }

      .b {
        fill: #2b7cd2;
      }

      .c {
        fill: #0358a6;
      }

      .d {
        fill: #103f90;
      }

      .e {
        fill: #163870;
      }

      .f {
        fill: #112d56;
      }

      .g {
        fill: #0078d3;
      }

      .h {
        fill: #2770c0;
      }

      .i {
        fill: #036dc0;
      }

      .j {
        fill: #fff;
      }
    </style>
  </defs>
  <title>graph_color48</title>
  <polygon class="a" points="12.835 1.385 35.31 1.385 16.322 8.388 12.835 1.385"/>
  <polyline class="a" points="46.605 20.861 37.36 20.862 35.31 1.384 46.605 20.861"/>
  <polyline class="b" points="16.322 8.388 35.31 1.384 37.36 20.862 16.322 8.388"/>
  <polyline class="c" points="16.322 8.388 16.849 32.819 37.326 20.86 16.322 8.388"/>
  <polygon class="d" points="1.589 20.86 16.322 8.388 16.852 32.819 1.589 20.86"/>
  <polyline class="d" points="16.852 32.819 37.36 20.862 35.317 40.339 16.852 32.819"/>
  <polygon class="e" points="1.589 20.86 16.852 32.819 12.835 40.339 1.589 20.86"/>
  <polygon class="f" points="12.835 40.339 16.852 32.819 35.317 40.339 12.835 40.339"/>
  <polygon class="g" points="1.589 20.86 12.835 1.385 16.322 8.388 1.589 20.86"/>
  <polyline class="g" points="35.317 40.339 46.584 20.86 37.36 20.86 35.317 40.339"/>
  <polyline class="h" points="37.36 20.861 37.36 20.862 37.36 20.862 37.36 20.861"/>
  <polyline class="i" points="46.584 20.86 37.36 20.86 37.36 20.861 37.36 20.862 35.317 40.339 46.584 20.86"/>
  <path class="j" d="M47.56,20.022,36.44.763,36,0H12l-.44.763L.44,20.022,0,20.785l.44.762,11.12,19.26.44.762H36l.44-.762,11.12-19.26.44-.762Zm-1.611.26h-7.5a1.866,1.866,0,0,0-.665-.812l-1.716-16.3Zm-27.52,10.94a1.855,1.855,0,0,0-.853-.473l-.44-20a1.865,1.865,0,0,0,.9-.65L35.063,20.187a1.851,1.851,0,0,0-.1,1.4ZM35.912,19.338l-17.5-10.37a1.837,1.837,0,0,0-.075-.512L34.816,2.381l1.766,16.772A1.864,1.864,0,0,0,35.912,19.338ZM17.644,7.472a1.85,1.85,0,0,0-1.092-.356c-.03,0-.059,0-.089.005l-2.781-5.6H33.775Zm-2.379,2.852a1.843,1.843,0,0,0,.707.425l.442,20.086a1.881,1.881,0,0,0-.466.28L2.843,20.846ZM16.8,34.388a1.9,1.9,0,0,0,.331.031,1.856,1.856,0,0,0,1.29-.521l15.094,6.146H13.776Zm18.027,4.935L18.964,32.865a1.737,1.737,0,0,0,0-.61l16.687-9.73a1.848,1.848,0,0,0,.9.338ZM12.613,1.988l2.759,5.55a1.858,1.858,0,0,0-.683,1.441,1.952,1.952,0,0,0,.024.288L2.378,19.716ZM2.49,22.047,15.324,32.1a1.826,1.826,0,0,0-.058.453,1.848,1.848,0,0,0,.51,1.277l-3.115,5.831ZM36.1,38.352l1.656-15.785a1.863,1.863,0,0,0,.79-1.121h7.316Z"/>
</svg>
