<?xml version="1.0" encoding="UTF-8" standalone="no"?>
<!-- Created with Inkscape (http://www.inkscape.org/) -->

<svg
   width="65.639168mm"
   height="84.891975mm"
   viewBox="0 0 65.639168 84.891975"
   version="1.1"
   id="svg1"
   inkscape:version="1.3 (0e150ed6c4, 2023-07-21)"
   sodipodi:docname="sklogo.svg"
   xmlns:inkscape="http://www.inkscape.org/namespaces/inkscape"
   xmlns:sodipodi="http://sodipodi.sourceforge.net/DTD/sodipodi-0.dtd"
   xmlns="http://www.w3.org/2000/svg"
   xmlns:svg="http://www.w3.org/2000/svg">
  <sodipodi:namedview
     id="namedview1"
     pagecolor="#ffffff"
     bordercolor="#000000"
     borderopacity="0.25"
     inkscape:showpageshadow="2"
     inkscape:pageopacity="0.0"
     inkscape:pagecheckerboard="0"
     inkscape:deskcolor="#d1d1d1"
     inkscape:document-units="mm"
     inkscape:zoom="1.1019851"
     inkscape:cx="320.78473"
     inkscape:cy="484.12632"
     inkscape:window-width="5760"
     inkscape:window-height="1514"
     inkscape:window-x="3733"
     inkscape:window-y="-11"
     inkscape:window-maximized="1"
     inkscape:current-layer="layer1" />
  <defs
     id="defs1" />
  <g
     inkscape:label="Layer 1"
     inkscape:groupmode="layer"
     id="layer1"
     transform="translate(-20.108334,-20.372916)">
    <g
       id="g2"
       transform="matrix(0.26458333,0,0,0.26458333,-62.828884,13.894257)"
       style="clip-rule:evenodd;fill-rule:evenodd;image-rendering:optimizeQuality;shape-rendering:geometricPrecision;text-rendering:geometricPrecision">
      <path
         style="opacity:1"
         fill="#46cdfd"
         d="m 437.5,25.5 c 2.453,2.2711 5.453,3.6045 9,4 7.121,8.7697 13.787,17.7697 20,27 3.424,2.3797 6.424,5.213 9,8.5 -1.134,1.016 -0.801,1.6827 1,2 -0.333,0.3333 -0.667,0.6667 -1,1 1.293,0.49 2.627,0.6567 4,0.5 0,0.3333 0,0.6667 0,1 -2.554,1.1056 -5.221,1.939 -8,2.5 -1.442,0.3768 -2.442,1.2101 -3,2.5 -4.665,1.9993 -9.332,3.9993 -14,6 -0.739,0.131 -1.406,-0.0357 -2,-0.5 1.172,-0.4186 2.172,-1.0853 3,-2 -4.808,-3.7311 -8.142,-8.0644 -10,-13 -1.488,-1.7172 -3.321,-2.8839 -5.5,-3.5 -1.778,-4.7966 -4.778,-8.7966 -9,-12 -0.862,-1.587 -1.529,-3.2536 -2,-5 -4.874,-4.5391 -9.374,-9.3724 -13.5,-14.5 -4.048,-0.3042 -8.048,-0.8042 -12,-1.5 11.053,-2.5249 22.386,-3.5249 34,-3 z"
         id="path2" />
    </g>
    <g
       id="g3"
       transform="matrix(0.26458333,0,0,0.26458333,-62.828884,13.894257)"
       style="clip-rule:evenodd;fill-rule:evenodd;image-rendering:optimizeQuality;shape-rendering:geometricPrecision;text-rendering:geometricPrecision">
      <path
         style="opacity:1"
         fill="#afe6fd"
         d="m 442.5,25.5 c -1.667,0 -3.333,0 -5,0 -11.614,-0.5249 -22.947,0.4751 -34,3 -1.333,0 -2.667,0 -4,0 5.384,-1.8492 11.051,-3.0159 17,-3.5 8.843,-0.8236 17.51,-0.6569 26,0.5 z"
         id="path3" />
    </g>
    <g
       id="g4"
       transform="matrix(0.26458333,0,0,0.26458333,-62.828884,13.894257)"
       style="clip-rule:evenodd;fill-rule:evenodd;image-rendering:optimizeQuality;shape-rendering:geometricPrecision;text-rendering:geometricPrecision">
      <path
         style="opacity:1"
         fill="#42c4fd"
         d="m 399.5,28.5 c 1.333,0 2.667,0 4,0 3.952,0.6958 7.952,1.1958 12,1.5 4.126,5.1276 8.626,9.9609 13.5,14.5 0.471,1.7464 1.138,3.413 2,5 4.222,3.2034 7.222,7.2034 9,12 2.179,0.6161 4.012,1.7828 5.5,3.5 1.858,4.9356 5.192,9.2689 10,13 -0.828,0.9147 -1.828,1.5814 -3,2 0.594,0.4643 1.261,0.631 2,0.5 0,0.3333 0,0.6667 0,1 -1.667,0.6667 -3.333,1.3333 -5,2 -3.536,-1.4694 -6.37,-3.8027 -8.5,-7 -0.862,-1.587 -1.529,-3.2536 -2,-5 -1.147,0.9581 -2.147,0.6247 -3,-1 -4.364,-5.766 -8.364,-11.766 -12,-18 -1.205,-0.5712 -2.372,-1.2379 -3.5,-2 -4.123,-6.8282 -9.456,-13.3282 -16,-19.5 -5.575,-2.1065 -10.909,-1.6065 -16,1.5 -2.51,0.4267 -4.843,1.0933 -7,2 -0.667,0 -1.333,0 -2,0 0.111,-0.6174 0.444,-1.1174 1,-1.5 4.521,-0.7293 8.854,-2.0626 13,-4 1.973,-0.4955 3.973,-0.6621 6,-0.5 z"
         id="path4" />
    </g>
    <g
       id="g5"
       transform="matrix(0.26458333,0,0,0.26458333,-62.828884,13.894257)"
       style="clip-rule:evenodd;fill-rule:evenodd;image-rendering:optimizeQuality;shape-rendering:geometricPrecision;text-rendering:geometricPrecision">
      <path
         style="opacity:1"
         fill="#68d8fd"
         d="m 437.5,25.5 c 1.667,0 3.333,0 5,0 7.898,0.7725 15.565,2.1059 23,4 4.866,6.0683 10.032,12.0683 15.5,18 1.968,3.9599 4.635,7.2932 8,10 0.732,3.2106 2.566,5.2106 5.5,6 0,0.3333 0,0.6667 0,1 -5.091,1.2314 -10.091,2.5648 -15,4 -1.373,0.1567 -2.707,-0.01 -4,-0.5 0.333,-0.3333 0.667,-0.6667 1,-1 -1.801,-0.3173 -2.134,-0.984 -1,-2 -2.576,-3.287 -5.576,-6.1203 -9,-8.5 -6.213,-9.2303 -12.879,-18.2303 -20,-27 -3.547,-0.3955 -6.547,-1.7289 -9,-4 z"
         id="path5" />
    </g>
    <g
       id="g6"
       transform="matrix(0.26458333,0,0,0.26458333,-62.828884,13.894257)"
       style="clip-rule:evenodd;fill-rule:evenodd;image-rendering:optimizeQuality;shape-rendering:geometricPrecision;text-rendering:geometricPrecision">
      <path
         style="opacity:1"
         fill="#3fbefd"
         d="m 449.5,83.5 c -2.322,2.164 -4.989,3.8307 -8,5 -2.792,-0.8918 -4.125,-2.8918 -4,-6 -1,0 -2,0 -3,0 0,-3.3333 -1.667,-5 -5,-5 0.009,-1.8084 -0.491,-3.4751 -1.5,-5 -4.035,-4.3661 -8.035,-8.6994 -12,-13 -1.298,-3.3542 -3.464,-5.6876 -6.5,-7 0.262,-1.4778 -0.071,-2.8112 -1,-4 -3.329,-3.9911 -6.662,-7.9911 -10,-12 -2.237,-0.6321 -3.903,-1.9654 -5,-4 -1.816,1.2349 -3.483,1.2349 -5,0 5.091,-3.1065 10.425,-3.6065 16,-1.5 6.544,6.1718 11.877,12.6718 16,19.5 1.128,0.7621 2.295,1.4288 3.5,2 3.636,6.234 7.636,12.234 12,18 0.853,1.6247 1.853,1.9581 3,1 0.471,1.7464 1.138,3.413 2,5 2.13,3.1973 4.964,5.5306 8.5,7 z"
         id="path6" />
    </g>
    <g
       id="g7"
       transform="matrix(0.26458333,0,0,0.26458333,-62.828884,13.894257)"
       style="clip-rule:evenodd;fill-rule:evenodd;image-rendering:optimizeQuality;shape-rendering:geometricPrecision;text-rendering:geometricPrecision">
      <path
         style="opacity:1"
         fill="#40b8fd"
         d="m 388.5,32.5 c 1.517,1.2349 3.184,1.2349 5,0 1.097,2.0346 2.763,3.3679 5,4 3.338,4.0089 6.671,8.0089 10,12 0.929,1.1888 1.262,2.5222 1,4 3.036,1.3124 5.202,3.6458 6.5,7 3.965,4.3006 7.965,8.6339 12,13 1.009,1.5249 1.509,3.1916 1.5,5 3.333,0 5,1.6667 5,5 1,0 2,0 3,0 -0.125,3.1082 1.208,5.1082 4,6 -2.119,1.8998 -4.453,3.5664 -7,5 -3.858,-0.3601 -5.858,-2.5268 -6,-6.5 -0.948,-0.4828 -1.948,-0.6495 -3,-0.5 -3.746,-6.9453 -8.58,-13.2787 -14.5,-19 -0.564,-3.5637 -2.564,-5.8971 -6,-7 -3.667,-5.3333 -7.333,-10.6667 -11,-16 -3.087,-1.8523 -4.92,-4.1856 -5.5,-7 -2.264,-1.3692 -4.597,-2.3692 -7,-3 2.157,-0.9067 4.49,-1.5733 7,-2 z"
         id="path7" />
    </g>
    <g
       id="g8"
       transform="matrix(0.26458333,0,0,0.26458333,-62.828884,13.894257)"
       style="clip-rule:evenodd;fill-rule:evenodd;image-rendering:optimizeQuality;shape-rendering:geometricPrecision;text-rendering:geometricPrecision">
      <path
         style="opacity:1"
         fill="#43b2fc"
         d="m 379.5,34.5 c 0.667,0 1.333,0 2,0 2.403,0.6308 4.736,1.6308 7,3 0.58,2.8144 2.413,5.1477 5.5,7 3.667,5.3333 7.333,10.6667 11,16 3.436,1.1029 5.436,3.4363 6,7 5.92,5.7213 10.754,12.0547 14.5,19 1.052,-0.1495 2.052,0.0172 3,0.5 0.142,3.9732 2.142,6.1399 6,6.5 -3.296,2.3208 -6.629,4.6542 -10,7 -1.505,-2.1816 -3.505,-4.6816 -6,-7.5 0.333,-0.3333 0.667,-0.6667 1,-1 -1.786,-0.7845 -3.286,-1.9512 -4.5,-3.5 -1.608,-3.272 -3.608,-6.272 -6,-9 -1.11,-1.5368 -2.61,-2.2035 -4.5,-2 0.079,-1.4305 -0.254,-2.7638 -1,-4 -7.667,-9 -15.333,-18 -23,-27 -2.177,-6.4257 -6.844,-8.7591 -14,-7 3.876,-2.6293 8.21,-4.296 13,-5 z"
         id="path8" />
    </g>
    <g
       id="g9"
       transform="matrix(0.26458333,0,0,0.26458333,-62.828884,13.894257)"
       style="clip-rule:evenodd;fill-rule:evenodd;image-rendering:optimizeQuality;shape-rendering:geometricPrecision;text-rendering:geometricPrecision">
      <path
         style="opacity:1"
         fill="#80dffd"
         d="m 465.5,29.5 c 7.63,0.9888 14.963,2.9888 22,6 -0.157,1.3734 0.01,2.7068 0.5,4 5.144,6.7783 10.644,13.2783 16.5,19.5 -0.333,0.3333 -0.667,0.6667 -1,1 6.513,0.1721 12.847,0.6721 19,1.5 -9.439,-0.3953 -18.772,0.2713 -28,2 -2.934,-0.7894 -4.768,-2.7894 -5.5,-6 -3.365,-2.7068 -6.032,-6.0401 -8,-10 -5.468,-5.9317 -10.634,-11.9317 -15.5,-18 z"
         id="path9" />
    </g>
    <g
       id="g10"
       transform="matrix(0.26458333,0,0,0.26458333,-62.828884,13.894257)"
       style="clip-rule:evenodd;fill-rule:evenodd;image-rendering:optimizeQuality;shape-rendering:geometricPrecision;text-rendering:geometricPrecision">
      <path
         style="opacity:1"
         fill="#44abfc"
         d="m 424.5,100.5 c -1.642,1.303 -3.309,2.636 -5,4 -2.371,-3.145 -5.538,-5.4788 -9.5,-7 -0.617,-0.9491 -0.451,-1.7825 0.5,-2.5 -6.582,-7.3056 -13.249,-14.4723 -20,-21.5 -0.952,-1.5453 -1.285,-3.212 -1,-5 -1.175,0.219 -2.175,-0.1143 -3,-1 -2.005,-3.1632 -4.172,-6.1632 -6.5,-9 -3.893,-1.7303 -6.06,-4.7303 -6.5,-9 -3.185,-0.2224 -4.185,-1.7224 -3,-4.5 -3.279,-1.1486 -6.613,-1.9819 -10,-2.5 1.681,-1.5075 3.681,-2.5075 6,-3 7.156,-1.7591 11.823,0.5743 14,7 7.667,9 15.333,18 23,27 0.746,1.2362 1.079,2.5695 1,4 1.89,-0.2035 3.39,0.4632 4.5,2 2.392,2.728 4.392,5.728 6,9 1.214,1.5488 2.714,2.7155 4.5,3.5 -0.333,0.3333 -0.667,0.6667 -1,1 2.495,2.8184 4.495,5.3184 6,7.5 z"
         id="path10" />
    </g>
    <g
       id="g11"
       transform="matrix(0.26458333,0,0,0.26458333,-62.828884,13.894257)"
       style="clip-rule:evenodd;fill-rule:evenodd;image-rendering:optimizeQuality;shape-rendering:geometricPrecision;text-rendering:geometricPrecision">
      <path
         style="opacity:1"
         fill="#96e6fd"
         d="m 487.5,35.5 c 8.168,2.92 15.835,6.5867 23,11 8.511,4.5095 16.178,10.1761 23,17 0.333,0.6667 0.667,1.3333 1,2 -1.109,-0.0569 -2.109,-0.3902 -3,-1 -2.333,-0.6667 -4.667,-1.3333 -7,-2 -0.342,-0.8382 -1.008,-1.1716 -2,-1 -6.153,-0.8279 -12.487,-1.3279 -19,-1.5 0.333,-0.3333 0.667,-0.6667 1,-1 -5.856,-6.2217 -11.356,-12.7217 -16.5,-19.5 -0.49,-1.2932 -0.657,-2.6266 -0.5,-4 z"
         id="path11" />
    </g>
    <g
       id="g12"
       transform="matrix(0.26458333,0,0,0.26458333,-62.828884,13.894257)"
       style="clip-rule:evenodd;fill-rule:evenodd;image-rendering:optimizeQuality;shape-rendering:geometricPrecision;text-rendering:geometricPrecision">
      <path
         style="opacity:1"
         fill="#46a5fc"
         d="m 360.5,42.5 c 3.387,0.5181 6.721,1.3514 10,2.5 -1.185,2.7776 -0.185,4.2776 3,4.5 0.44,4.2697 2.607,7.2697 6.5,9 2.328,2.8368 4.495,5.8368 6.5,9 0.825,0.8857 1.825,1.219 3,1 -0.285,1.788 0.048,3.4547 1,5 6.751,7.0277 13.418,14.1944 20,21.5 -0.951,0.7175 -1.117,1.5509 -0.5,2.5 3.962,1.5212 7.129,3.855 9.5,7 -2.36,2.353 -5.027,4.353 -8,6 -1.879,0.107 -2.212,-0.393 -1,-1.5 -1.333,-0.667 -2.667,-1.333 -4,-2 -3.612,-3.617 -6.446,-7.7834 -8.5,-12.5 -4.462,-4.6898 -8.795,-9.3565 -13,-14 -5.362,-7.3547 -10.696,-14.6881 -16,-22 -3.198,-0.7297 -4.698,-2.7297 -4.5,-6 -1,0 -2,0 -3,0 0.203,-1.8904 -0.463,-3.3904 -2,-4.5 -2.018,-0.5046 -4.018,-1.0046 -6,-1.5 2.163,-1.5828 4.496,-2.9161 7,-4 z"
         id="path12" />
    </g>
    <g
       id="g13"
       transform="matrix(0.26458333,0,0,0.26458333,-62.828884,13.894257)"
       style="clip-rule:evenodd;fill-rule:evenodd;image-rendering:optimizeQuality;shape-rendering:geometricPrecision;text-rendering:geometricPrecision">
      <path
         style="opacity:1"
         fill="#479ffb"
         d="m 353.5,46.5 c 1.982,0.4954 3.982,0.9954 6,1.5 1.537,1.1096 2.203,2.6096 2,4.5 1,0 2,0 3,0 -0.198,3.2703 1.302,5.2703 4.5,6 5.304,7.3119 10.638,14.6453 16,22 4.205,4.6435 8.538,9.3102 13,14 2.054,4.7166 4.888,8.883 8.5,12.5 1.333,0.667 2.667,1.333 4,2 -1.212,1.107 -0.879,1.607 1,1.5 -1.734,2.7 -4.068,4.7 -7,6 -9.565,-11.391 -19.399,-22.7241 -29.5,-34 -0.402,-1.3721 -0.902,-2.7054 -1.5,-4 -3.718,-3.7144 -7.051,-7.7144 -10,-12 -0.825,-0.8857 -1.825,-1.219 -3,-1 0,-1.3333 0,-2.6667 0,-4 -1.322,0.17 -2.489,-0.1634 -3.5,-1 -1.576,-3.8493 -4.076,-6.8493 -7.5,-9 -1.571,0.8094 -3.238,1.1427 -5,1 2.475,-2.7411 5.475,-4.7411 9,-6 z"
         id="path13" />
    </g>
    <g
       id="g14"
       transform="matrix(0.26458333,0,0,0.26458333,-62.828884,13.894257)"
       style="clip-rule:evenodd;fill-rule:evenodd;image-rendering:optimizeQuality;shape-rendering:geometricPrecision;text-rendering:geometricPrecision">
      <path
         style="opacity:1"
         fill="#f5f6f6"
         d="m 510.5,46.5 c 3.731,-0.2047 6.731,1.1287 9,4 1.342,-1.4023 2.176,-1.0689 2.5,1 0.333,-0.3333 0.667,-0.6667 1,-1 11.484,7.2494 21.817,15.9161 31,26 5.436,8.1464 7.936,17.1464 7.5,27 -0.826,14.973 -4.326,29.306 -10.5,43 -6.793,13.422 -13.959,26.589 -21.5,39.5 8.826,15.152 16.993,30.652 24.5,46.5 5.569,14.172 7.902,28.839 7,44 -0.373,7.075 -2.706,13.408 -7,19 -42.83,43.577 -94.163,58.577 -154,45 -31.829,-6.934 -58.495,-22.934 -80,-48 -0.44,-2.366 -0.94,-4.699 -1.5,-7 1,0.667 2,1.333 3,2 -0.073,1.527 0.594,2.527 2,3 1.25,2.567 2.417,5.233 3.5,8 5.107,4.953 10.607,9.286 16.5,13 14.999,12.306 31.999,21.139 51,26.5 59.983,14.658 112.15,0.825 156.5,-41.5 8.532,-13.194 10.865,-27.528 7,-43 -1.873,-7.828 -4.206,-15.495 -7,-23 -7.072,-15.148 -14.906,-29.815 -23.5,-44 8.341,-14.68 16.174,-29.68 23.5,-45 5.26,-11.967 8.093,-24.467 8.5,-37.5 0.549,-13.5581 -4.118,-24.8915 -14,-34 -1.717,-1.5588 -3.717,-2.3921 -6,-2.5 0,-1 0,-2 0,-3 -2.065,-0.0172 -4.065,-0.3505 -6,-1 -6.822,-6.8239 -14.489,-12.4905 -23,-17 z"
         id="path14" />
    </g>
    <g
       id="g15"
       transform="matrix(0.26458333,0,0,0.26458333,-62.828884,13.894257)"
       style="clip-rule:evenodd;fill-rule:evenodd;image-rendering:optimizeQuality;shape-rendering:geometricPrecision;text-rendering:geometricPrecision">
      <path
         style="opacity:1"
         fill="#4899fb"
         d="m 404.5,116.5 c -1.667,2 -3.333,4 -5,6 -1.562,0.233 -2.895,0.9 -4,2 -0.739,0.131 -1.406,-0.036 -2,-0.5 1.017,-1.049 1.184,-2.216 0.5,-3.5 -1.833,-1.833 -3.667,-3.667 -5.5,-5.5 0.333,-0.333 0.667,-0.667 1,-1 -2.622,-3.764 -5.956,-6.93 -10,-9.5 0.209,-0.586 0.543,-1.086 1,-1.5 -1.749,-1.292 -3.582,-2.458 -5.5,-3.5 -0.561,-2.2254 -1.561,-4.2254 -3,-6 -4.794,-3.9527 -8.627,-8.6194 -11.5,-14 -1.307,-1.3155 -2.807,-2.3155 -4.5,-3 0.094,-3.0008 -1.239,-5.0008 -4,-6 -3.468,-5.8382 -7.468,-10.5048 -12,-14 -0.671,0.7524 -1.504,1.0858 -2.5,1 1.796,-2.4 4.13,-4.0667 7,-5 1.762,0.1427 3.429,-0.1906 5,-1 3.424,2.1507 5.924,5.1507 7.5,9 1.011,0.8366 2.178,1.17 3.5,1 0,1.3333 0,2.6667 0,4 1.175,-0.219 2.175,0.1143 3,1 2.949,4.2856 6.282,8.2856 10,12 0.598,1.2946 1.098,2.6279 1.5,4 10.101,11.2759 19.935,22.609 29.5,34 z"
         id="path15" />
    </g>
    <g
       id="g16"
       transform="matrix(0.26458333,0,0,0.26458333,-62.828884,13.894257)"
       style="clip-rule:evenodd;fill-rule:evenodd;image-rendering:optimizeQuality;shape-rendering:geometricPrecision;text-rendering:geometricPrecision">
      <path
         style="opacity:1"
         fill="#5091fa"
         d="m 395.5,124.5 c -1.333,1.667 -2.667,3.333 -4,5 -1,0.667 -2,1.333 -3,2 -1.333,0 -2.667,0 -4,0 -0.454,-2.64 -1.621,-4.973 -3.5,-7 -16.313,-19.622 -32.48,-39.1216 -48.5,-58.5 -0.916,-0.3742 -1.75,-0.8742 -2.5,-1.5 -2.436,2.9468 -5.269,5.2801 -8.5,7 4.575,-5.6074 9.909,-10.274 16,-14 0.996,0.0858 1.829,-0.2476 2.5,-1 4.532,3.4952 8.532,8.1618 12,14 2.761,0.9992 4.094,2.9992 4,6 1.693,0.6845 3.193,1.6845 4.5,3 2.873,5.3806 6.706,10.0473 11.5,14 1.439,1.7746 2.439,3.7746 3,6 1.918,1.042 3.751,2.208 5.5,3.5 -0.457,0.414 -0.791,0.914 -1,1.5 4.044,2.57 7.378,5.736 10,9.5 -0.333,0.333 -0.667,0.667 -1,1 1.833,1.833 3.667,3.667 5.5,5.5 0.684,1.284 0.517,2.451 -0.5,3.5 0.594,0.464 1.261,0.631 2,0.5 z"
         id="path16" />
    </g>
    <g
       id="g17"
       transform="matrix(0.26458333,0,0,0.26458333,-62.828884,13.894257)"
       style="clip-rule:evenodd;fill-rule:evenodd;image-rendering:optimizeQuality;shape-rendering:geometricPrecision;text-rendering:geometricPrecision">
      <path
         style="opacity:1"
         fill="#5195ec"
         d="m 522.5,61.5 c 0.992,-0.1716 1.658,0.1618 2,1 -2,0 -4,0 -6,0 -8.072,-0.0971 -16.072,0.5696 -24,2 0,-0.3333 0,-0.6667 0,-1 9.228,-1.7287 18.561,-2.3953 28,-2 z"
         id="path17" />
    </g>
    <g
       id="g18"
       transform="matrix(0.26458333,0,0,0.26458333,-62.828884,13.894257)"
       style="clip-rule:evenodd;fill-rule:evenodd;image-rendering:optimizeQuality;shape-rendering:geometricPrecision;text-rendering:geometricPrecision">
      <path
         style="opacity:1"
         fill="#2a5fd5"
         d="m 454.5,118.5 c -0.667,0 -1.333,0 -2,0 -2.796,-1.523 -5.796,-2.856 -9,-4 3.936,-5.23 7.769,-10.564 11.5,-16 1.011,-0.8366 2.178,-1.17 3.5,-1 -0.244,-3.9267 1.59,-6.26 5.5,-7 2.803,-6.7592 6.97,-12.5925 12.5,-17.5 -2.72,-0.0448 -5.386,0.4552 -8,1.5 0.558,-1.2899 1.558,-2.1232 3,-2.5 2.779,-0.561 5.446,-1.3944 8,-2.5 2.73,0.0266 5.23,-0.6401 7.5,-2 0.833,0.3333 1.667,0.6667 2.5,1 -1.451,5.0806 -4.451,8.9139 -9,11.5 -1.566,3.3634 -2.732,6.8634 -3.5,10.5 -2.667,4 -5.333,8 -8,12 -1.011,0.837 -2.178,1.17 -3.5,1 -0.862,3.385 -2.528,6.385 -5,9 -0.952,1.545 -1.285,3.212 -1,5 -1.915,-0.284 -3.581,0.049 -5,1 z"
         id="path18" />
    </g>
    <g
       id="g19"
       transform="matrix(0.26458333,0,0,0.26458333,-62.828884,13.894257)"
       style="clip-rule:evenodd;fill-rule:evenodd;image-rendering:optimizeQuality;shape-rendering:geometricPrecision;text-rendering:geometricPrecision">
      <path
         style="opacity:1"
         fill="#6388f6"
         d="m 388.5,131.5 c -2.409,2.402 -4.409,5.069 -6,8 -1.278,0.282 -2.278,0.949 -3,2 -19.895,-21.929 -38.895,-44.9292 -57,-69 -0.808,0.3076 -1.475,0.8076 -2,1.5 0.551,1.3985 0.884,2.7318 1,4 -1.401,0.4101 -2.734,0.9101 -4,1.5 0.03,-3.3515 1.363,-6.0182 4,-8 3.231,-1.7199 6.064,-4.0532 8.5,-7 0.75,0.6258 1.584,1.1258 2.5,1.5 16.02,19.3784 32.187,38.878 48.5,58.5 1.879,2.027 3.046,4.36 3.5,7 1.333,0 2.667,0 4,0 z"
         id="path19" />
    </g>
    <g
       id="g20"
       transform="matrix(0.26458333,0,0,0.26458333,-62.828884,13.894257)"
       style="clip-rule:evenodd;fill-rule:evenodd;image-rendering:optimizeQuality;shape-rendering:geometricPrecision;text-rendering:geometricPrecision">
      <path
         style="opacity:1"
         fill="#448bf5"
         d="m 531.5,64.5 c 0.891,0.6098 1.891,0.9431 3,1 3.356,1.6984 6.023,4.0318 8,7 0,1.6667 0,3.3333 0,5 -1.373,-0.1567 -2.707,0.01 -4,0.5 0.333,0.3333 0.667,0.6667 1,1 -2.99,3.6282 -4.823,7.7949 -5.5,12.5 -3.548,2.3914 -5.715,5.7247 -6.5,10 -4.462,4.893 -8.462,10.226 -12,16 -1.247,1.542 -1.247,3.042 0,4.5 -0.948,0.483 -1.948,0.649 -3,0.5 -1.274,3.881 -3.107,7.548 -5.5,11 -5.516,3.02 -8.349,7.687 -8.5,14 -1.89,-0.203 -3.39,0.463 -4.5,2 -0.671,-0.752 -1.504,-1.086 -2.5,-1 -1.599,-2.104 -3.432,-4.104 -5.5,-6 -0.399,0.228 -0.565,0.562 -0.5,1 -0.901,-0.79 -1.568,-1.79 -2,-3 3.73,-4.445 7.23,-9.111 10.5,-14 1.84,-4.505 4.34,-8.672 7.5,-12.5 -0.333,-0.333 -0.667,-0.667 -1,-1 3.19,-3.192 6.023,-6.692 8.5,-10.5 5.147,-9.6299 10.647,-18.9632 16.5,-28 2.26,-1.6768 3.927,-3.8434 5,-6.5 1,-0.3333 2,-0.6667 3,-1 -1.256,-0.4169 -1.923,-1.2502 -2,-2.5 z"
         id="path20" />
    </g>
    <g
       id="g21"
       transform="matrix(0.26458333,0,0,0.26458333,-62.828884,13.894257)"
       style="clip-rule:evenodd;fill-rule:evenodd;image-rendering:optimizeQuality;shape-rendering:geometricPrecision;text-rendering:geometricPrecision">
      <path
         style="opacity:1"
         fill="#7581f3"
         d="m 379.5,141.5 c -0.667,1.333 -1.333,2.667 -2,4 -2.088,1.836 -3.421,4.169 -4,7 -1.175,0.219 -2.175,-0.114 -3,-1 -17.01,-21.993 -34.51,-43.66 -52.5,-65 -0.474,-5.127 -1.474,-5.127 -3,0 -0.497,2.3098 -0.663,4.6432 -0.5,7 0,3.6667 0,7.333 0,11 -1.153,-6.1529 -1.32,-12.4863 -0.5,-19 0.424,-2.5254 1.59,-4.5254 3.5,-6 1.266,-0.5899 2.599,-1.0899 4,-1.5 -0.116,-1.2682 -0.449,-2.6015 -1,-4 0.525,-0.6924 1.192,-1.1924 2,-1.5 18.105,24.0708 37.105,47.071 57,69 z"
         id="path21" />
    </g>
    <g
       id="g22"
       transform="matrix(0.26458333,0,0,0.26458333,-62.828884,13.894257)"
       style="clip-rule:evenodd;fill-rule:evenodd;image-rendering:optimizeQuality;shape-rendering:geometricPrecision;text-rendering:geometricPrecision">
      <path
         style="opacity:1"
         fill="#326de0"
         d="m 518.5,62.5 c -3.233,1.3947 -5.733,3.728 -7.5,7 -4.398,8.4282 -9.398,16.4282 -15,24 -0.973,1.8921 -1.64,3.8921 -2,6 -5.387,5.762 -10.054,12.095 -14,19 -0.798,4.427 -2.298,8.594 -4.5,12.5 1.964,1.451 3.297,3.284 4,5.5 -5.167,-4.743 -10.501,-9.243 -16,-13.5 -3.381,-0.915 -6.381,-2.415 -9,-4.5 1.419,-0.951 3.085,-1.284 5,-1 -0.285,-1.788 0.048,-3.455 1,-5 2.472,-2.615 4.138,-5.615 5,-9 1.322,0.17 2.489,-0.163 3.5,-1 2.667,-4 5.333,-8 8,-12 0.768,-3.6366 1.934,-7.1366 3.5,-10.5 4.549,-2.5861 7.549,-6.4194 9,-11.5 -0.833,-0.3333 -1.667,-0.6667 -2.5,-1 -2.27,1.3599 -4.77,2.0266 -7.5,2 0,-0.3333 0,-0.6667 0,-1 4.909,-1.4352 9.909,-2.7686 15,-4 7.928,-1.4304 15.928,-2.0971 24,-2 z"
         id="path22" />
    </g>
    <g
       id="g23"
       transform="matrix(0.26458333,0,0,0.26458333,-62.828884,13.894257)"
       style="clip-rule:evenodd;fill-rule:evenodd;image-rendering:optimizeQuality;shape-rendering:geometricPrecision;text-rendering:geometricPrecision">
      <path
         style="opacity:1"
         fill="#4f97fb"
         d="m 542.5,72.5 c 2.828,1.4957 4.494,3.829 5,7 1.078,2.9021 1.744,5.9021 2,9 -0.063,6.7411 -0.73,13.408 -2,20 -1.175,-0.219 -2.175,0.114 -3,1 -8.377,14.713 -17.877,29.379 -28.5,44 -2.845,4.357 -5.178,9.023 -7,14 -0.671,-0.752 -1.504,-1.086 -2.5,-1 -5,-6 -10,-12 -15,-18 0.996,-0.086 1.829,0.248 2.5,1 1.11,-1.537 2.61,-2.203 4.5,-2 0.151,-6.313 2.984,-10.98 8.5,-14 2.393,-3.452 4.226,-7.119 5.5,-11 1.052,0.149 2.052,-0.017 3,-0.5 -1.247,-1.458 -1.247,-2.958 0,-4.5 3.538,-5.774 7.538,-11.107 12,-16 0.785,-4.2753 2.952,-7.6086 6.5,-10 0.677,-4.7051 2.51,-8.8718 5.5,-12.5 -0.333,-0.3333 -0.667,-0.6667 -1,-1 1.293,-0.49 2.627,-0.6567 4,-0.5 0,-1.6667 0,-3.3333 0,-5 z"
         id="path23" />
    </g>
    <g
       id="g24"
       transform="matrix(0.26458333,0,0,0.26458333,-62.828884,13.894257)"
       style="clip-rule:evenodd;fill-rule:evenodd;image-rendering:optimizeQuality;shape-rendering:geometricPrecision;text-rendering:geometricPrecision">
      <path
         style="opacity:1"
         fill="#dedede"
         d="m 551.5,82.5 c 1.392,1.7726 2.559,3.7726 3.5,6 2.281,9.061 2.614,18.061 1,27 -5.66,23.986 -15.66,45.986 -30,66 -0.273,1.601 -0.773,3.101 -1.5,4.5 0.982,2.738 1.648,5.572 2,8.5 -2.58,-3.489 -4.913,-7.156 -7,-11 15.684,-21.177 26.684,-44.677 33,-70.5 -0.901,-9.869 -1.235,-20.0358 -1,-30.5 z"
         id="path24" />
    </g>
    <g
       id="g25"
       transform="matrix(0.26458333,0,0,0.26458333,-62.828884,13.894257)"
       style="clip-rule:evenodd;fill-rule:evenodd;image-rendering:optimizeQuality;shape-rendering:geometricPrecision;text-rendering:geometricPrecision">
      <path
         style="opacity:1"
         fill="#8079f0"
         d="m 373.5,152.5 c -0.596,2.245 -1.596,4.245 -3,6 -10.958,-12.812 -21.458,-26.146 -31.5,-40 -7.213,-7.242 -13.879,-15.242 -20,-24 -1.356,-0.8802 -2.856,-1.2135 -4.5,-1 -0.163,-2.3568 0.003,-4.6902 0.5,-7 1.526,-5.127 2.526,-5.127 3,0 17.99,21.34 35.49,43.007 52.5,65 0.825,0.886 1.825,1.219 3,1 z"
         id="path25" />
    </g>
    <g
       id="g26"
       transform="matrix(0.26458333,0,0,0.26458333,-62.828884,13.894257)"
       style="clip-rule:evenodd;fill-rule:evenodd;image-rendering:optimizeQuality;shape-rendering:geometricPrecision;text-rendering:geometricPrecision">
      <path
         style="opacity:1"
         fill="#1e4aba"
         d="m 437.5,115.5 c -5.676,-0.166 -11.343,0.001 -17,0.5 -7.242,1.694 -14.242,3.86 -21,6.5 1.667,-2 3.333,-4 5,-6 2.932,-1.3 5.266,-3.3 7,-6 2.973,-1.647 5.64,-3.647 8,-6 1.691,-1.364 3.358,-2.697 5,-4 3.371,-2.3458 6.704,-4.6792 10,-7 2.547,-1.4336 4.881,-3.1002 7,-5 3.011,-1.1693 5.678,-2.836 8,-5 1.667,-0.6667 3.333,-1.3333 5,-2 1.762,0.1427 3.429,-0.1906 5,-1 1.196,0.3457 1.196,0.8457 0,1.5 -6.966,3.6386 -12.632,8.6386 -17,15 -6.401,4.674 -12.068,10.007 -17,16 -1.333,0.333 -2.667,0.667 -4,1 5.516,0.173 10.849,0.673 16,1.5 z"
         id="path26" />
    </g>
    <g
       id="g27"
       transform="matrix(0.26458333,0,0,0.26458333,-62.828884,13.894257)"
       style="clip-rule:evenodd;fill-rule:evenodd;image-rendering:optimizeQuality;shape-rendering:geometricPrecision;text-rendering:geometricPrecision">
      <path
         style="opacity:1"
         fill="#3c7eec"
         d="m 518.5,62.5 c 2,0 4,0 6,0 2.333,0.6667 4.667,1.3333 7,2 0.077,1.2498 0.744,2.0831 2,2.5 -1,0.3333 -2,0.6667 -3,1 -1.073,2.6566 -2.74,4.8232 -5,6.5 -5.853,9.0368 -11.353,18.3701 -16.5,28 -2.477,3.808 -5.31,7.308 -8.5,10.5 0.333,0.333 0.667,0.667 1,1 -3.16,3.828 -5.66,7.995 -7.5,12.5 -3.27,4.889 -6.77,9.555 -10.5,14 -1.333,-1.333 -2.667,-2.667 -4,-4 -0.703,-2.216 -2.036,-4.049 -4,-5.5 2.202,-3.906 3.702,-8.073 4.5,-12.5 3.946,-6.905 8.613,-13.238 14,-19 0.36,-2.1079 1.027,-4.1079 2,-6 5.602,-7.5718 10.602,-15.5718 15,-24 1.767,-3.272 4.267,-5.6053 7.5,-7 z"
         id="path27" />
    </g>
    <g
       id="g28"
       transform="matrix(0.26458333,0,0,0.26458333,-62.828884,13.894257)"
       style="clip-rule:evenodd;fill-rule:evenodd;image-rendering:optimizeQuality;shape-rendering:geometricPrecision;text-rendering:geometricPrecision">
      <path
         style="opacity:1"
         fill="#2150c7"
         d="m 452.5,118.5 c -5.04,-0.791 -10.04,-1.791 -15,-3 -5.151,-0.827 -10.484,-1.327 -16,-1.5 1.333,-0.333 2.667,-0.667 4,-1 4.932,-5.993 10.599,-11.326 17,-16 4.368,-6.3614 10.034,-11.3614 17,-15 1.196,-0.6543 1.196,-1.1543 0,-1.5 -1.571,0.8094 -3.238,1.1427 -5,1 0,-0.3333 0,-0.6667 0,-1 4.668,-2.0007 9.335,-4.0007 14,-6 2.614,-1.0448 5.28,-1.5448 8,-1.5 -5.53,4.9075 -9.697,10.7408 -12.5,17.5 -3.91,0.74 -5.744,3.0733 -5.5,7 -1.322,-0.17 -2.489,0.1634 -3.5,1 -3.731,5.436 -7.564,10.77 -11.5,16 3.204,1.144 6.204,2.477 9,4 z"
         id="path28" />
    </g>
    <g
       id="g29"
       transform="matrix(0.26458333,0,0,0.26458333,-62.828884,13.894257)"
       style="clip-rule:evenodd;fill-rule:evenodd;image-rendering:optimizeQuality;shape-rendering:geometricPrecision;text-rendering:geometricPrecision">
      <path
         style="opacity:1"
         fill="#8a70ed"
         d="m 314.5,93.5 c 1.644,-0.2135 3.144,0.1198 4.5,1 6.121,8.758 12.787,16.758 20,24 10.042,13.854 20.542,27.188 31.5,40 0,0.667 0,1.333 0,2 -0.934,1.068 -1.268,2.401 -1,4 -0.667,0 -1,0.333 -1,1 -1.81,1.455 -3.477,1.288 -5,-0.5 0.333,-0.333 0.667,-0.667 1,-1 -5.272,-4.272 -9.438,-9.439 -12.5,-15.5 -12.143,-13.631 -23.81,-27.631 -35,-42 -0.333,-1.667 -0.667,-3.333 -1,-5 -0.895,2.966 -0.395,5.633 1.5,8 -0.809,1.571 -1.143,3.238 -1,5 -1.285,-3.089 -1.951,-6.422 -2,-10 0,-3.667 0,-7.3333 0,-11 z"
         id="path29" />
    </g>
    <g
       id="g30"
       transform="matrix(0.26458333,0,0,0.26458333,-62.828884,13.894257)"
       style="clip-rule:evenodd;fill-rule:evenodd;image-rendering:optimizeQuality;shape-rendering:geometricPrecision;text-rendering:geometricPrecision">
      <path
         style="opacity:1"
         fill="#c8cdd4"
         d="m 547.5,79.5 c 1.137,1.2888 2.47,2.2888 4,3 -0.235,10.4642 0.099,20.631 1,30.5 -6.316,25.823 -17.316,49.323 -33,70.5 -2.227,-0.901 -3.227,-2.567 -3,-5 17.115,-22.238 28.281,-47.238 33.5,-75 0.816,-5.1842 0.65,-10.1842 -0.5,-15 -0.256,-3.0979 -0.922,-6.0979 -2,-9 z"
         id="path30" />
    </g>
    <g
       id="g31"
       transform="matrix(0.26458333,0,0,0.26458333,-62.828884,13.894257)"
       style="clip-rule:evenodd;fill-rule:evenodd;image-rendering:optimizeQuality;shape-rendering:geometricPrecision;text-rendering:geometricPrecision">
      <path
         style="opacity:1"
         fill="#5da3fc"
         d="m 549.5,88.5 c 1.15,4.8158 1.316,9.8158 0.5,15 -5.219,27.762 -16.385,52.762 -33.5,75 -3.68,-3.683 -7.014,-7.683 -10,-12 0.996,-0.086 1.829,0.248 2.5,1 1.822,-4.977 4.155,-9.643 7,-14 10.623,-14.621 20.123,-29.287 28.5,-44 0.825,-0.886 1.825,-1.219 3,-1 1.27,-6.592 1.937,-13.2589 2,-20 z"
         id="path31" />
    </g>
    <g
       id="g32"
       transform="matrix(0.26458333,0,0,0.26458333,-62.828884,13.894257)"
       style="clip-rule:evenodd;fill-rule:evenodd;image-rendering:optimizeQuality;shape-rendering:geometricPrecision;text-rendering:geometricPrecision">
      <path
         style="opacity:1"
         fill="#9768ea"
         d="m 368.5,165.5 c -0.719,2.264 -1.052,4.597 -1,7 -0.809,1.792 -1.309,3.792 -1.5,6 -1.167,-1.167 -2.333,-2.333 -3.5,-3.5 0.333,-0.333 0.667,-0.667 1,-1 -1.502,-0.583 -2.835,-1.416 -4,-2.5 0.209,-0.586 0.543,-1.086 1,-1.5 -7.307,-5.973 -13.14,-13.14 -17.5,-21.5 -1.011,-0.837 -2.178,-1.17 -3.5,-1 0.079,-1.43 -0.254,-2.764 -1,-4 -7.056,-6.559 -13.223,-13.892 -18.5,-22 -0.46,3.462 0.04,6.796 1.5,10 -1.466,-0.847 -2.3,-2.18 -2.5,-4 -1.157,-4.282 -1.99,-8.616 -2.5,-13 -0.143,-1.762 0.191,-3.429 1,-5 -1.895,-2.367 -2.395,-5.034 -1.5,-8 0.333,1.667 0.667,3.333 1,5 11.19,14.369 22.857,28.369 35,42 3.062,6.061 7.228,11.228 12.5,15.5 -0.333,0.333 -0.667,0.667 -1,1 1.523,1.788 3.19,1.955 5,0.5 z"
         id="path32" />
    </g>
    <g
       id="g33"
       transform="matrix(0.26458333,0,0,0.26458333,-62.828884,13.894257)"
       style="clip-rule:evenodd;fill-rule:evenodd;image-rendering:optimizeQuality;shape-rendering:geometricPrecision;text-rendering:geometricPrecision">
      <path
         style="opacity:1"
         fill="#1c2688"
         d="m 437.5,115.5 c 4.96,1.209 9.96,2.209 15,3 0.667,0 1.333,0 2,0 2.619,2.085 5.619,3.585 9,4.5 5.499,4.257 10.833,8.757 16,13.5 1.333,1.333 2.667,2.667 4,4 0.432,1.21 1.099,2.21 2,3 0.941,1.55 1.607,3.216 2,5 -4.969,-1.082 -9.469,-3.082 -13.5,-6 -0.772,0.145 -1.439,0.478 -2,1 -2.74,-0.782 -5.574,-1.282 -8.5,-1.5 -0.825,-1.688 -1.825,-1.855 -3,-0.5 -3.574,-1.484 -7.074,-3.151 -10.5,-5 -4.463,1.616 -8.629,1.116 -12.5,-1.5 -9.776,-0.822 -19.11,-3.155 -28,-7 -6.24,-1.019 -12.24,-0.519 -18,1.5 1.333,-1.667 2.667,-3.333 4,-5 1.105,-1.1 2.438,-1.767 4,-2 6.758,-2.64 13.758,-4.806 21,-6.5 5.657,-0.499 11.324,-0.666 17,-0.5 z"
         id="path33" />
    </g>
    <g
       id="g34"
       transform="matrix(0.26458333,0,0,0.26458333,-62.828884,13.894257)"
       style="clip-rule:evenodd;fill-rule:evenodd;image-rendering:optimizeQuality;shape-rendering:geometricPrecision;text-rendering:geometricPrecision">
      <path
         style="opacity:1"
         fill="#27238d"
         d="m 487.5,148.5 c 4.806,6.406 7.473,13.739 8,22 0,0.333 0,0.667 0,1 -1.052,0.149 -2.052,-0.017 -3,-0.5 1.372,-3.541 1.206,-7.041 -0.5,-10.5 -0.368,1.41 -1.201,2.41 -2.5,3 -1.2,-1.031 -2.534,-1.865 -4,-2.5 -8.263,-0.618 -16.097,-2.451 -23.5,-5.5 -0.873,0.235 -1.707,0.569 -2.5,1 -1.715,-1.215 -3.549,-2.215 -5.5,-3 -18.431,-4.101 -37.265,-7.934 -56.5,-11.5 -1.51,-0.85 -3.01,-1.683 -4.5,-2.5 -0.95,0.522 -1.784,1.189 -2.5,2 -2.37,-2.553 -5.037,-3.22 -8,-2 1.591,-2.931 3.591,-5.598 6,-8 1,-0.667 2,-1.333 3,-2 5.76,-2.019 11.76,-2.519 18,-1.5 8.89,3.845 18.224,6.178 28,7 3.871,2.616 8.037,3.116 12.5,1.5 3.426,1.849 6.926,3.516 10.5,5 1.175,-1.355 2.175,-1.188 3,0.5 2.926,0.218 5.76,0.718 8.5,1.5 0.561,-0.522 1.228,-0.855 2,-1 4.031,2.918 8.531,4.918 13.5,6 z"
         id="path34" />
    </g>
    <g
       id="g35"
       transform="matrix(0.26458333,0,0,0.26458333,-62.828884,13.894257)"
       style="clip-rule:evenodd;fill-rule:evenodd;image-rendering:optimizeQuality;shape-rendering:geometricPrecision;text-rendering:geometricPrecision">
      <path
         style="opacity:1"
         fill="#322193"
         d="m 495.5,171.5 c 0,1 0,2 0,3 -0.563,1.82 -1.729,3.153 -3.5,4 -5.581,-0.252 -10.747,-1.752 -15.5,-4.5 -11.306,-1.854 -22.473,-4.354 -33.5,-7.5 -1.366,0.206 -2.699,0.54 -4,1 -6.601,-2.183 -13.268,-4.183 -20,-6 -1.332,2.436 -2.499,2.436 -3.5,0 -10.43,-2.391 -20.763,-5.058 -31,-8 -2.906,-1.028 -5.739,-1.028 -8.5,0 -0.045,-2.72 0.455,-5.386 1.5,-8 0.667,-1.333 1.333,-2.667 2,-4 0.722,-1.051 1.722,-1.718 3,-2 2.963,-1.22 5.63,-0.553 8,2 0.716,-0.811 1.55,-1.478 2.5,-2 1.49,0.817 2.99,1.65 4.5,2.5 19.235,3.566 38.069,7.399 56.5,11.5 1.951,0.785 3.785,1.785 5.5,3 0.793,-0.431 1.627,-0.765 2.5,-1 7.403,3.049 15.237,4.882 23.5,5.5 1.466,0.635 2.8,1.469 4,2.5 1.299,-0.59 2.132,-1.59 2.5,-3 1.706,3.459 1.872,6.959 0.5,10.5 0.948,0.483 1.948,0.649 3,0.5 z"
         id="path35" />
    </g>
    <g
       id="g36"
       transform="matrix(0.26458333,0,0,0.26458333,-62.828884,13.894257)"
       style="clip-rule:evenodd;fill-rule:evenodd;image-rendering:optimizeQuality;shape-rendering:geometricPrecision;text-rendering:geometricPrecision">
      <path
         style="opacity:1"
         fill="#d5b5ed"
         d="m 326.5,144.5 c 1.745,1.533 2.745,3.533 3,6 -1.745,-1.533 -2.745,-3.533 -3,-6 z"
         id="path36" />
    </g>
    <g
       id="g37"
       transform="matrix(0.26458333,0,0,0.26458333,-62.828884,13.894257)"
       style="clip-rule:evenodd;fill-rule:evenodd;image-rendering:optimizeQuality;shape-rendering:geometricPrecision;text-rendering:geometricPrecision">
      <path
         style="opacity:1"
         fill="#9f5fe7"
         d="m 367.5,172.5 c 0,6 0,12 0,18 -6.636,-8.147 -13.136,-16.481 -19.5,-25 -4.05,-5.046 -8.384,-9.713 -13,-14 -0.49,-1.293 -0.657,-2.627 -0.5,-4 -1.609,-0.406 -2.943,-0.406 -4,0 2.98,4.281 4.98,8.947 6,14 -3.095,-3.192 -5.428,-6.859 -7,-11 -0.255,-2.467 -1.255,-4.467 -3,-6 -1.389,-4.444 -3.056,-8.777 -5,-13 -1.46,-3.204 -1.96,-6.538 -1.5,-10 5.277,8.108 11.444,15.441 18.5,22 0.746,1.236 1.079,2.57 1,4 1.322,-0.17 2.489,0.163 3.5,1 4.36,8.36 10.193,15.527 17.5,21.5 -0.457,0.414 -0.791,0.914 -1,1.5 1.165,1.084 2.498,1.917 4,2.5 -0.333,0.333 -0.667,0.667 -1,1 1.167,1.167 2.333,2.333 3.5,3.5 0.191,-2.208 0.691,-4.208 1.5,-6 z"
         id="path37" />
    </g>
    <g
       id="g38"
       transform="matrix(0.26458333,0,0,0.26458333,-62.828884,13.894257)"
       style="clip-rule:evenodd;fill-rule:evenodd;image-rendering:optimizeQuality;shape-rendering:geometricPrecision;text-rendering:geometricPrecision">
      <path
         style="opacity:1"
         fill="#a856e3"
         d="m 367.5,190.5 c 0.882,3.881 2.215,7.548 4,11 1.383,2.478 2.383,5.145 3,8 0.528,1.347 0.695,2.681 0.5,4 -2.183,-2.407 -4.35,-4.74 -6.5,-7 -3.655,-4.986 -7.655,-9.653 -12,-14 -2.311,-3.163 -4.478,-6.497 -6.5,-10 -0.671,-0.752 -1.504,-1.086 -2.5,-1 0.009,-1.808 -0.491,-3.475 -1.5,-5 -3.786,-4.617 -6.952,-9.617 -9.5,-15 -1.02,-5.053 -3.02,-9.719 -6,-14 1.057,-0.406 2.391,-0.406 4,0 -0.157,1.373 0.01,2.707 0.5,4 4.616,4.287 8.95,8.954 13,14 6.364,8.519 12.864,16.853 19.5,25 z"
         id="path38" />
    </g>
    <g
       id="g39"
       transform="matrix(0.26458333,0,0,0.26458333,-62.828884,13.894257)"
       style="clip-rule:evenodd;fill-rule:evenodd;image-rendering:optimizeQuality;shape-rendering:geometricPrecision;text-rendering:geometricPrecision">
      <path
         style="opacity:1"
         fill="#3a1f97"
         d="m 377.5,145.5 c -1.045,2.614 -1.545,5.28 -1.5,8 2.761,-1.028 5.594,-1.028 8.5,0 10.237,2.942 20.57,5.609 31,8 1.001,2.436 2.168,2.436 3.5,0 6.732,1.817 13.399,3.817 20,6 1.301,-0.46 2.634,-0.794 4,-1 11.027,3.146 22.194,5.646 33.5,7.5 4.753,2.748 9.919,4.248 15.5,4.5 1.771,-0.847 2.937,-2.18 3.5,-4 0.323,6.19 -0.01,12.19 -1,18 0,-1.333 0,-2.667 0,-4 -19.466,-4.332 -38.633,-8.332 -57.5,-12 -1.658,-0.175 -2.991,-0.842 -4,-2 -1.544,2.764 -2.711,2.597 -3.5,-0.5 -4.295,-0.912 -8.628,-1.579 -13,-2 -4.156,-0.824 -7.989,-2.324 -11.5,-4.5 -4.525,1.031 -8.858,0.365 -13,-2 -0.561,0.522 -1.228,0.855 -2,1 -5.45,-1.611 -10.95,-3.278 -16.5,-5 -0.751,0.876 -1.251,1.876 -1.5,3 -0.21,-1.558 -0.71,-2.891 -1.5,-4 0,-0.667 0,-1.333 0,-2 1.404,-1.755 2.404,-3.755 3,-6 0.579,-2.831 1.912,-5.164 4,-7 z"
         id="path39" />
    </g>
    <g
       id="g40"
       transform="matrix(0.26458333,0,0,0.26458333,-62.828884,13.894257)"
       style="clip-rule:evenodd;fill-rule:evenodd;image-rendering:optimizeQuality;shape-rendering:geometricPrecision;text-rendering:geometricPrecision">
      <path
         style="opacity:1"
         fill="#451d9d"
         d="m 370.5,160.5 c 0.79,1.109 1.29,2.442 1.5,4 0.249,-1.124 0.749,-2.124 1.5,-3 5.55,1.722 11.05,3.389 16.5,5 0.772,-0.145 1.439,-0.478 2,-1 4.142,2.365 8.475,3.031 13,2 3.511,2.176 7.344,3.676 11.5,4.5 4.372,0.421 8.705,1.088 13,2 0.789,3.097 1.956,3.264 3.5,0.5 1.009,1.158 2.342,1.825 4,2 18.867,3.668 38.034,7.668 57.5,12 0,1.333 0,2.667 0,4 -0.493,2.306 -0.826,4.639 -1,7 0,1 0,2 0,3 -1.228,0.806 -2.228,1.806 -3,3 -1.548,-0.321 -2.215,-1.321 -2,-3 -4.377,-0.077 -8.71,-0.577 -13,-1.5 -22.474,-5.554 -44.474,-10.221 -66,-14 -5.945,-2.529 -12.112,-4.362 -18.5,-5.5 -2.498,0.621 -4.832,-0.045 -7,-2 -0.414,0.457 -0.914,0.791 -1.5,1 -3.033,-1.844 -6.366,-2.844 -10,-3 -1.494,0.209 -2.661,0.876 -3.5,2 -0.588,-5.028 -0.422,-10.028 0.5,-15 -0.268,-1.599 0.066,-2.932 1,-4 z"
         id="path40" />
    </g>
    <g
       id="g41"
       transform="matrix(0.26458333,0,0,0.26458333,-62.828884,13.894257)"
       style="clip-rule:evenodd;fill-rule:evenodd;image-rendering:optimizeQuality;shape-rendering:geometricPrecision;text-rendering:geometricPrecision">
      <path
         style="opacity:1"
         fill="#6c64c2"
         d="m 495.5,170.5 c 0.667,0 1,0.333 1,1 0.24,8.375 -0.093,16.708 -1,25 -0.667,1 -1.333,2 -2,3 0.174,-2.361 0.507,-4.694 1,-7 0.99,-5.81 1.323,-11.81 1,-18 0,-1 0,-2 0,-3 0,-0.333 0,-0.667 0,-1 z"
         id="path41" />
    </g>
    <g
       id="g42"
       transform="matrix(0.26458333,0,0,0.26458333,-62.828884,13.894257)"
       style="clip-rule:evenodd;fill-rule:evenodd;image-rendering:optimizeQuality;shape-rendering:geometricPrecision;text-rendering:geometricPrecision">
      <path
         style="opacity:1"
         fill="#9bc5fc"
         d="m 491.5,148.5 c 5,6 10,12 15,18 2.986,4.317 6.32,8.317 10,12 -0.227,2.433 0.773,4.099 3,5 2.087,3.844 4.42,7.511 7,11 0,0.667 0.333,1 1,1 2.036,4.353 4.036,8.686 6,13 -3.564,-2.577 -6.564,-5.91 -9,-10 -7.321,-4.72 -14.321,-9.887 -21,-15.5 -1.525,-1.009 -3.192,-1.509 -5,-1.5 0.162,2.027 -0.005,4.027 -0.5,6 -0.173,-5.516 -0.673,-10.849 -1.5,-16 0,-0.667 -0.333,-1 -1,-1 -0.527,-8.261 -3.194,-15.594 -8,-22 -0.393,-1.784 -1.059,-3.45 -2,-5 -0.065,-0.438 0.101,-0.772 0.5,-1 2.068,1.896 3.901,3.896 5.5,6 z"
         id="path42" />
    </g>
    <g
       id="g43"
       transform="matrix(0.26458333,0,0,0.26458333,-62.828884,13.894257)"
       style="clip-rule:evenodd;fill-rule:evenodd;image-rendering:optimizeQuality;shape-rendering:geometricPrecision;text-rendering:geometricPrecision">
      <path
         style="opacity:1"
         fill="#8842cc"
         d="m 347.5,181.5 c 0.996,-0.086 1.829,0.248 2.5,1 2.022,3.503 4.189,6.837 6.5,10 -1.629,-1.125 -3.129,-2.459 -4.5,-4 -0.792,2.087 -1.959,3.921 -3.5,5.5 0.522,0.561 0.855,1.228 1,2 -3.302,4.123 -6.468,8.29 -9.5,12.5 -3.665,7.292 -7.331,14.626 -11,22 -1.333,1.333 -2.667,2.667 -4,4 -1.461,4.556 -3.794,8.556 -7,12 -1.596,9.39 -2.43,18.724 -2.5,28 -0.667,-1.333 -1.333,-2.667 -2,-4 0,-6 0,-12 0,-18 1.424,-2.015 2.09,-4.348 2,-7 5.893,-23.786 16.56,-45.119 32,-64 z"
         id="path43" />
    </g>
    <g
       id="g44"
       transform="matrix(0.26458333,0,0,0.26458333,-62.828884,13.894257)"
       style="clip-rule:evenodd;fill-rule:evenodd;image-rendering:optimizeQuality;shape-rendering:geometricPrecision;text-rendering:geometricPrecision">
      <path
         style="opacity:1"
         fill="#541da2"
         d="m 369.5,164.5 c -0.922,4.972 -1.088,9.972 -0.5,15 0.839,-1.124 2.006,-1.791 3.5,-2 3.634,0.156 6.967,1.156 10,3 0.586,-0.209 1.086,-0.543 1.5,-1 2.168,1.955 4.502,2.621 7,2 6.388,1.138 12.555,2.971 18.5,5.5 21.526,3.779 43.526,8.446 66,14 4.29,0.923 8.623,1.423 13,1.5 -0.215,1.679 0.452,2.679 2,3 0,0.667 0,1.333 0,2 -1.508,1.681 -2.508,3.681 -3,6 -1.826,1.647 -3.16,3.647 -4,6 -2.561,2.14 -4.895,4.473 -7,7 -1.29,-0.558 -2.123,-1.558 -2.5,-3 -7.618,0.007 -14.951,-1.659 -22,-5 -2.006,1.502 -3.672,1.169 -5,-1 -0.333,0.333 -0.667,0.667 -1,1 -12.359,-3.715 -24.859,-6.715 -37.5,-9 -0.942,0.108 -1.775,0.441 -2.5,1 -4.592,-1.938 -9.259,-3.604 -14,-5 -2.128,0.427 -4.295,-0.073 -6.5,-1.5 -4.768,-0.516 -9.434,-1.35 -14,-2.5 -1.785,-3.452 -3.118,-7.119 -4,-11 0,-6 0,-12 0,-18 -0.052,-2.403 0.281,-4.736 1,-7 0,-0.667 0.333,-1 1,-1 z"
         id="path44" />
    </g>
    <g
       id="g45"
       transform="matrix(0.26458333,0,0,0.26458333,-62.828884,13.894257)"
       style="clip-rule:evenodd;fill-rule:evenodd;image-rendering:optimizeQuality;shape-rendering:geometricPrecision;text-rendering:geometricPrecision">
      <path
         style="opacity:1"
         fill="#a3bafa"
         d="m 496.5,171.5 c 0.827,5.151 1.327,10.484 1.5,16 0.495,-1.973 0.662,-3.973 0.5,-6 1.808,-0.009 3.475,0.491 5,1.5 6.679,5.613 13.679,10.78 21,15.5 2.436,4.09 5.436,7.423 9,10 2.959,4.336 5.459,9.002 7.5,14 1.355,5.566 3.188,10.899 5.5,16 -1,0 -2,0 -3,0 -0.384,-3.269 -1.718,-6.103 -4,-8.5 -5.834,-5.41 -12.168,-10.076 -19,-14 -3.544,-3.543 -7.211,-7.043 -11,-10.5 -0.586,0.209 -1.086,0.543 -1.5,1 -3.248,-2.804 -6.581,-5.471 -10,-8 -0.945,0.405 -1.612,1.072 -2,2 -0.49,-1.293 -0.657,-2.627 -0.5,-4 0.907,-8.292 1.24,-16.625 1,-25 z"
         id="path45" />
    </g>
    <g
       id="g46"
       transform="matrix(0.26458333,0,0,0.26458333,-62.828884,13.894257)"
       style="clip-rule:evenodd;fill-rule:evenodd;image-rendering:optimizeQuality;shape-rendering:geometricPrecision;text-rendering:geometricPrecision">
      <path
         style="opacity:1"
         fill="#8231c0"
         d="m 356.5,192.5 c 4.345,4.347 8.345,9.014 12,14 -0.996,0.086 -1.829,-0.248 -2.5,-1 -0.991,1.439 -2.324,2.439 -4,3 -1.559,6.153 -4.059,12.153 -7.5,18 -1.322,-0.17 -2.489,0.163 -3.5,1 -4.488,7.662 -8.488,15.662 -12,24 -1.205,0.571 -2.372,1.238 -3.5,2 -3.436,7.235 -7.27,14.235 -11.5,21 -1.37,2.55 -2.537,5.217 -3.5,8 0.809,1.571 1.143,3.238 1,5 -1,-0.667 -2,-1.333 -3,-2 -0.435,-2.657 -1.435,-4.991 -3,-7 0,-1.333 0,-2.667 0,-4 0.07,-9.276 0.904,-18.61 2.5,-28 3.206,-3.444 5.539,-7.444 7,-12 1.333,-1.333 2.667,-2.667 4,-4 3.669,-7.374 7.335,-14.708 11,-22 3.032,-4.21 6.198,-8.377 9.5,-12.5 -0.145,-0.772 -0.478,-1.439 -1,-2 1.541,-1.579 2.708,-3.413 3.5,-5.5 1.371,1.541 2.871,2.875 4.5,4 z"
         id="path46" />
    </g>
    <g
       id="g47"
       transform="matrix(0.26458333,0,0,0.26458333,-62.828884,13.894257)"
       style="clip-rule:evenodd;fill-rule:evenodd;image-rendering:optimizeQuality;shape-rendering:geometricPrecision;text-rendering:geometricPrecision">
      <path
         style="opacity:1"
         fill="#621da6"
         d="m 371.5,201.5 c 4.566,1.15 9.232,1.984 14,2.5 2.205,1.427 4.372,1.927 6.5,1.5 4.741,1.396 9.408,3.062 14,5 0.725,-0.559 1.558,-0.892 2.5,-1 12.641,2.285 25.141,5.285 37.5,9 0.333,-0.333 0.667,-0.667 1,-1 1.328,2.169 2.994,2.502 5,1 7.049,3.341 14.382,5.007 22,5 0.377,1.442 1.21,2.442 2.5,3 -1.027,1.694 -2.361,3.027 -4,4 -1.667,1 -3,2.333 -4,4 -0.667,0.333 -1.333,0.667 -2,1 -3.451,0.038 -6.784,0.705 -10,2 -10.154,-3.215 -20.821,-5.715 -32,-7.5 -4.12,-1.798 -8.787,-2.798 -14,-3 -9.83,-2.195 -19.496,-4.695 -29,-7.5 -2.346,-3.371 -4.679,-6.704 -7,-10 -0.617,-2.855 -1.617,-5.522 -3,-8 z"
         id="path47" />
    </g>
    <g
       id="g48"
       transform="matrix(0.26458333,0,0,0.26458333,-62.828884,13.894257)"
       style="clip-rule:evenodd;fill-rule:evenodd;image-rendering:optimizeQuality;shape-rendering:geometricPrecision;text-rendering:geometricPrecision">
      <path
         style="opacity:1"
         fill="#8023b2"
         d="m 368.5,206.5 c 2.15,2.26 4.317,4.593 6.5,7 0.195,-1.319 0.028,-2.653 -0.5,-4 2.321,3.296 4.654,6.629 7,10 3.443,5.709 8.109,10.043 14,13 -0.992,-0.172 -1.658,0.162 -2,1 -2.464,-2.716 -4.63,-2.382 -6.5,1 -0.667,2 -1.333,4 -2,6 -2.057,1.769 -3.89,3.769 -5.5,6 0.209,0.586 0.543,1.086 1,1.5 -7.374,8.472 -12.874,17.972 -16.5,28.5 -4.229,0.849 -5.896,3.182 -5,7 -1.447,1.903 -3.114,3.57 -5,5 -0.617,0.949 -0.451,1.782 0.5,2.5 -1.537,1.11 -2.203,2.61 -2,4.5 -1.175,-0.219 -2.175,0.114 -3,1 1.667,0.333 3.333,0.667 5,1 3.663,-0.444 7.329,-0.778 11,-1 -5.248,1.522 -10.748,2.189 -16.5,2 -3.833,-0.167 -7.667,-0.333 -11.5,-0.5 -2.427,-1.591 -5.093,-2.425 -8,-2.5 -2.209,-1.42 -4.209,-3.087 -6,-5 -1.406,-0.473 -2.073,-1.473 -2,-3 0.143,-1.762 -0.191,-3.429 -1,-5 0.963,-2.783 2.13,-5.45 3.5,-8 4.23,-6.765 8.064,-13.765 11.5,-21 1.128,-0.762 2.295,-1.429 3.5,-2 3.512,-8.338 7.512,-16.338 12,-24 1.011,-0.837 2.178,-1.17 3.5,-1 3.441,-5.847 5.941,-11.847 7.5,-18 1.676,-0.561 3.009,-1.561 4,-3 0.671,0.752 1.504,1.086 2.5,1 z"
         id="path48" />
    </g>
    <g
       id="g49"
       transform="matrix(0.26458333,0,0,0.26458333,-62.828884,13.894257)"
       style="clip-rule:evenodd;fill-rule:evenodd;image-rendering:optimizeQuality;shape-rendering:geometricPrecision;text-rendering:geometricPrecision">
      <path
         style="opacity:1"
         fill="#a8b0f8"
         d="m 495.5,196.5 c -0.157,1.373 0.01,2.707 0.5,4 0.388,-0.928 1.055,-1.595 2,-2 3.419,2.529 6.752,5.196 10,8 0.414,-0.457 0.914,-0.791 1.5,-1 3.789,3.457 7.456,6.957 11,10.5 6.832,3.924 13.166,8.59 19,14 2.282,2.397 3.616,5.231 4,8.5 1,0 2,0 3,0 1.156,3.623 2.156,7.289 3,11 0.999,7.829 0.999,15.496 0,23 0.165,-3.35 -0.002,-6.683 -0.5,-10 -0.741,-1.141 -1.575,-1.141 -2.5,0 -4.799,-5.575 -8.966,-11.575 -12.5,-18 -0.333,0.333 -0.667,0.667 -1,1 -6.888,-4.544 -11.888,-10.544 -15,-18 -3.04,-3.553 -6.207,-7.053 -9.5,-10.5 -1.525,-1.009 -3.192,-1.509 -5,-1.5 0,-1 0,-2 0,-3 -1.333,0 -2.667,0 -4,0 0.149,-1.052 -0.017,-2.052 -0.5,-3 -2.325,-2.001 -4.158,-4.334 -5.5,-7 0,-1 0,-2 0,-3 0.667,-1 1.333,-2 2,-3 z"
         id="path49" />
    </g>
    <g
       id="g50"
       transform="matrix(0.26458333,0,0,0.26458333,-62.828884,13.894257)"
       style="clip-rule:evenodd;fill-rule:evenodd;image-rendering:optimizeQuality;shape-rendering:geometricPrecision;text-rendering:geometricPrecision">
      <path
         style="opacity:1"
         fill="#6f1da9"
         d="m 381.5,219.5 c 9.504,2.805 19.17,5.305 29,7.5 5.213,0.202 9.88,1.202 14,3 11.179,1.785 21.846,4.285 32,7.5 3.216,-1.295 6.549,-1.962 10,-2 0,0.667 -0.333,1 -1,1 -6.962,2.357 -13.962,4.524 -21,6.5 -7.993,0.5 -15.993,0.666 -24,0.5 -6.248,-0.953 -12.248,-2.787 -18,-5.5 -2.403,-1.853 -4.736,-3.686 -7,-5.5 -5.891,-2.957 -10.557,-7.291 -14,-13 z"
         id="path50" />
    </g>
    <g
       id="g51"
       transform="matrix(0.26458333,0,0,0.26458333,-62.828884,13.894257)"
       style="clip-rule:evenodd;fill-rule:evenodd;image-rendering:optimizeQuality;shape-rendering:geometricPrecision;text-rendering:geometricPrecision">
      <path
         style="opacity:1"
         fill="#771aa4"
         d="m 393.5,233.5 c 6.323,4.991 12.323,10.324 18,16 -2.049,0.206 -2.383,1.039 -1,2.5 -3.717,1.274 -6.051,3.774 -7,7.5 -3.252,1.149 -5.085,3.482 -5.5,7 -8.317,6.176 -14.983,13.843 -20,23 -1.419,0.96 -2.919,1.793 -4.5,2.5 1.293,0.49 2.627,0.657 4,0.5 0,0.333 0,0.667 0,1 -4.119,0.597 -8.119,1.597 -12,3 -3.671,0.222 -7.337,0.556 -11,1 -1.667,-0.333 -3.333,-0.667 -5,-1 0.825,-0.886 1.825,-1.219 3,-1 -0.203,-1.89 0.463,-3.39 2,-4.5 -0.951,-0.718 -1.117,-1.551 -0.5,-2.5 1.886,-1.43 3.553,-3.097 5,-5 -0.896,-3.818 0.771,-6.151 5,-7 3.626,-10.528 9.126,-20.028 16.5,-28.5 -0.457,-0.414 -0.791,-0.914 -1,-1.5 1.61,-2.231 3.443,-4.231 5.5,-6 0.667,-2 1.333,-4 2,-6 1.87,-3.382 4.036,-3.716 6.5,-1 z"
         id="path51" />
    </g>
    <g
       id="g52"
       transform="matrix(0.26458333,0,0,0.26458333,-62.828884,13.894257)"
       style="clip-rule:evenodd;fill-rule:evenodd;image-rendering:optimizeQuality;shape-rendering:geometricPrecision;text-rendering:geometricPrecision">
      <path
         style="opacity:1"
         fill="#afa7f7"
         d="m 493.5,202.5 c 1.342,2.666 3.175,4.999 5.5,7 0.483,0.948 0.649,1.948 0.5,3 1.333,0 2.667,0 4,0 0,1 0,2 0,3 1.808,-0.009 3.475,0.491 5,1.5 3.293,3.447 6.46,6.947 9.5,10.5 3.112,7.456 8.112,13.456 15,18 0.333,-0.333 0.667,-0.667 1,-1 3.534,6.425 7.701,12.425 12.5,18 0.925,-1.141 1.759,-1.141 2.5,0 0.498,3.317 0.665,6.65 0.5,10 0.172,0.992 -0.162,1.658 -1,2 0.768,-6.298 -1.565,-11.131 -7,-14.5 -2.98,-1.634 -5.98,-3.3 -9,-5 -5.106,-4.828 -10.273,-8.995 -15.5,-12.5 -2.512,-5.173 -5.012,-10.34 -7.5,-15.5 -5.949,-2.652 -11.283,-6.318 -16,-11 -1.266,-0.309 -2.433,-0.809 -3.5,-1.5 -0.333,0.333 -0.667,0.667 -1,1 0.73,-2.521 1.23,-5.187 1.5,-8 0,-0.667 0,-1.333 0,-2 0.772,-1.194 1.772,-2.194 3,-3 z"
         id="path52" />
    </g>
    <g
       id="g53"
       transform="matrix(0.26458333,0,0,0.26458333,-62.828884,13.894257)"
       style="clip-rule:evenodd;fill-rule:evenodd;image-rendering:optimizeQuality;shape-rendering:geometricPrecision;text-rendering:geometricPrecision">
      <path
         style="opacity:1"
         fill="#a720d2"
         d="m 393.5,233.5 c 0.342,-0.838 1.008,-1.172 2,-1 2.264,1.814 4.597,3.647 7,5.5 5.752,2.713 11.752,4.547 18,5.5 3.486,1.033 7.153,1.867 11,2.5 -3.616,2.11 -6.282,4.944 -8,8.5 -1.333,0 -2.667,0 -4,0 -2.649,-1.64 -5.316,-3.307 -8,-5 -5.677,-5.676 -11.677,-11.009 -18,-16 z"
         id="path53" />
    </g>
    <g
       id="g54"
       transform="matrix(0.26458333,0,0,0.26458333,-62.828884,13.894257)"
       style="clip-rule:evenodd;fill-rule:evenodd;image-rendering:optimizeQuality;shape-rendering:geometricPrecision;text-rendering:geometricPrecision">
      <path
         style="opacity:1"
         fill="#921bbe"
         d="m 465.5,236.5 c -3.027,3.694 -6.36,7.027 -10,10 -7.372,5.678 -14.705,11.345 -22,17 -1.109,0.057 -2.109,0.39 -3,1 -3.02,-3.016 -6.354,-5.683 -10,-8 -0.333,-0.667 -0.667,-1.333 -1,-2 1.333,0 2.667,0 4,0 1.718,-3.556 4.384,-6.39 8,-8.5 -3.847,-0.633 -7.514,-1.467 -11,-2.5 8.007,0.166 16.007,0 24,-0.5 7.038,-1.976 14.038,-4.143 21,-6.5 z"
         id="path54" />
    </g>
    <g
       id="g55"
       transform="matrix(0.26458333,0,0,0.26458333,-62.828884,13.894257)"
       style="clip-rule:evenodd;fill-rule:evenodd;image-rendering:optimizeQuality;shape-rendering:geometricPrecision;text-rendering:geometricPrecision">
      <path
         style="opacity:1"
         fill="#b5a1f6"
         d="m 490.5,207.5 c -0.27,2.813 -0.77,5.479 -1.5,8 0.333,-0.333 0.667,-0.667 1,-1 1.067,0.691 2.234,1.191 3.5,1.5 4.717,4.682 10.051,8.348 16,11 2.488,5.16 4.988,10.327 7.5,15.5 5.227,3.505 10.394,7.672 15.5,12.5 3.02,1.7 6.02,3.366 9,5 5.435,3.369 7.768,8.202 7,14.5 0.237,1.291 -0.096,2.291 -1,3 -0.326,-2.161 -1.326,-3.994 -3,-5.5 -9.895,-6.92 -19.728,-13.753 -29.5,-20.5 -4.115,-12.618 -12.282,-21.618 -24.5,-27 -0.751,-0.876 -1.251,-1.876 -1.5,-3 -2.085,1.147 -3.585,0.48 -4.5,-2 1.408,-0.743 2.741,-1.577 4,-2.5 -0.837,-1.011 -1.17,-2.178 -1,-3.5 0.492,-2.319 1.492,-4.319 3,-6 z"
         id="path55" />
    </g>
    <g
       id="g56"
       transform="matrix(0.26458333,0,0,0.26458333,-62.828884,13.894257)"
       style="clip-rule:evenodd;fill-rule:evenodd;image-rendering:optimizeQuality;shape-rendering:geometricPrecision;text-rendering:geometricPrecision">
      <path
         style="opacity:1"
         fill="#d4baeb"
         d="m 315.5,245.5 c 0.09,2.652 -0.576,4.985 -2,7 -0.09,-2.652 0.576,-4.985 2,-7 z"
         id="path56" />
    </g>
    <g
       id="g57"
       transform="matrix(0.26458333,0,0,0.26458333,-62.828884,13.894257)"
       style="clip-rule:evenodd;fill-rule:evenodd;image-rendering:optimizeQuality;shape-rendering:geometricPrecision;text-rendering:geometricPrecision">
      <path
         style="opacity:1"
         fill="#6e1899"
         d="m 411.5,249.5 c 2.684,1.693 5.351,3.36 8,5 0.333,0.667 0.667,1.333 1,2 -0.996,0.086 -1.829,-0.248 -2.5,-1 -2.202,3.71 -5.369,6.043 -9.5,7 -3.16,5.84 -7.493,10.84 -13,15 -2.304,4.405 -5.638,7.905 -10,10.5 0.594,0.464 1.261,0.631 2,0.5 -3.183,1.51 -6.516,2.843 -10,4 -1.373,0.157 -2.707,-0.01 -4,-0.5 1.581,-0.707 3.081,-1.54 4.5,-2.5 5.017,-9.157 11.683,-16.824 20,-23 0.415,-3.518 2.248,-5.851 5.5,-7 0.949,-3.726 3.283,-6.226 7,-7.5 -1.383,-1.461 -1.049,-2.294 1,-2.5 z"
         id="path57" />
    </g>
    <g
       id="g58"
       transform="matrix(0.26458333,0,0,0.26458333,-62.828884,13.894257)"
       style="clip-rule:evenodd;fill-rule:evenodd;image-rendering:optimizeQuality;shape-rendering:geometricPrecision;text-rendering:geometricPrecision">
      <path
         style="opacity:1"
         fill="#ba9af5"
         d="m 487.5,213.5 c -0.17,1.322 0.163,2.489 1,3.5 -1.259,0.923 -2.592,1.757 -4,2.5 0.915,2.48 2.415,3.147 4.5,2 0.249,1.124 0.749,2.124 1.5,3 12.218,5.382 20.385,14.382 24.5,27 9.772,6.747 19.605,13.58 29.5,20.5 1.674,1.506 2.674,3.339 3,5.5 -0.052,2.846 -1.052,5.18 -3,7 -4.095,-3.315 -8.095,-6.815 -12,-10.5 -6.235,-3.29 -12.068,-7.124 -17.5,-11.5 -0.471,-1.746 -1.138,-3.413 -2,-5 -1.364,0.758 -2.531,0.258 -3.5,-1.5 0.333,-0.333 0.667,-0.667 1,-1 -1.901,-3.86 -3.901,-7.693 -6,-11.5 -2.757,-1.253 -5.091,-3.087 -7,-5.5 -2.507,-0.093 -4.674,-0.926 -6.5,-2.5 -2.15,-4.13 -4.483,-8.13 -7,-12 -0.49,-1.293 -0.657,-2.627 -0.5,-4 0.84,-2.353 2.174,-4.353 4,-6 z"
         id="path58" />
    </g>
    <g
       id="g59"
       transform="matrix(0.26458333,0,0,0.26458333,-62.828884,13.894257)"
       style="clip-rule:evenodd;fill-rule:evenodd;image-rendering:optimizeQuality;shape-rendering:geometricPrecision;text-rendering:geometricPrecision">
      <path
         style="opacity:1"
         fill="#65158e"
         d="m 420.5,256.5 c 3.646,2.317 6.98,4.984 10,8 -4,3 -8,6 -12,9 -5,2.164 -9.667,4.831 -14,8 -5.527,2.594 -11.193,4.928 -17,7 -0.739,0.131 -1.406,-0.036 -2,-0.5 4.362,-2.595 7.696,-6.095 10,-10.5 5.507,-4.16 9.84,-9.16 13,-15 4.131,-0.957 7.298,-3.29 9.5,-7 0.671,0.752 1.504,1.086 2.5,1 z"
         id="path59" />
    </g>
    <g
       id="g60"
       transform="matrix(0.26458333,0,0,0.26458333,-62.828884,13.894257)"
       style="clip-rule:evenodd;fill-rule:evenodd;image-rendering:optimizeQuality;shape-rendering:geometricPrecision;text-rendering:geometricPrecision">
      <path
         style="opacity:1"
         fill="#e37af7"
         d="m 455.5,246.5 c -0.219,1.175 0.114,2.175 1,3 3.171,2.341 6.171,4.841 9,7.5 0.949,0.617 1.782,0.451 2.5,-0.5 4.9,6.209 8.9,12.876 12,20 3.168,3.463 6.668,6.63 10.5,9.5 6.549,1.698 10.216,5.531 11,11.5 -7.863,-1.81 -15.53,-4.143 -23,-7 -8.103,-3.422 -16.103,-7.089 -24,-11 -6.626,-4.273 -13.293,-8.607 -20,-13 -0.886,-0.825 -1.219,-1.825 -1,-3 7.295,-5.655 14.628,-11.322 22,-17 z"
         id="path60" />
    </g>
    <g
       id="g61"
       transform="matrix(0.26458333,0,0,0.26458333,-62.828884,13.894257)"
       style="clip-rule:evenodd;fill-rule:evenodd;image-rendering:optimizeQuality;shape-rendering:geometricPrecision;text-rendering:geometricPrecision">
      <path
         style="opacity:1"
         fill="#c493f5"
         d="m 483.5,219.5 c -0.157,1.373 0.01,2.707 0.5,4 2.517,3.87 4.85,7.87 7,12 1.826,1.574 3.993,2.407 6.5,2.5 1.909,2.413 4.243,4.247 7,5.5 2.099,3.807 4.099,7.64 6,11.5 -0.333,0.333 -0.667,0.667 -1,1 0.969,1.758 2.136,2.258 3.5,1.5 0.862,1.587 1.529,3.254 2,5 5.432,4.376 11.265,8.21 17.5,11.5 3.905,3.685 7.905,7.185 12,10.5 -3.292,4.96 -7.292,9.293 -12,13 0.262,-1.478 -0.071,-2.811 -1,-4 -2.818,-3.311 -6.318,-5.644 -10.5,-7 -2.305,-6.882 -6.138,-12.716 -11.5,-17.5 0.333,-0.333 0.667,-0.667 1,-1 -1.746,-0.471 -3.413,-1.138 -5,-2 -8.666,-6.324 -17.166,-12.824 -25.5,-19.5 -2.384,-3.825 -4.384,-7.825 -6,-12 -1.008,-0.482 -2.175,-0.648 -3.5,-0.5 1.323,-0.816 1.989,-1.983 2,-3.5 1.639,-0.973 2.973,-2.306 4,-4 2.105,-2.527 4.439,-4.86 7,-7 z"
         id="path61" />
    </g>
    <g
       id="g62"
       transform="matrix(0.26458333,0,0,0.26458333,-62.828884,13.894257)"
       style="clip-rule:evenodd;fill-rule:evenodd;image-rendering:optimizeQuality;shape-rendering:geometricPrecision;text-rendering:geometricPrecision">
      <path
         style="opacity:1"
         fill="#be5ce5"
         d="m 433.5,263.5 c -0.219,1.175 0.114,2.175 1,3 6.707,4.393 13.374,8.727 20,13 0.194,2.412 1.527,3.412 4,3 0,1 0,2 0,3 1.43,-0.079 2.764,0.254 4,1 9.355,10.522 19.522,20.188 30.5,29 -0.534,2.54 -1.034,4.874 -1.5,7 -9.308,3.99 -18.975,6.99 -29,9 -2.065,0.017 -4.065,0.35 -6,1 0.622,-1.127 1.455,-2.127 2.5,-3 2.064,1.091 4.231,1.258 6.5,0.5 -0.333,-0.333 -0.667,-0.667 -1,-1 2.28,-0.233 4.28,-1.066 6,-2.5 -1.649,-2.15 -3.482,-4.15 -5.5,-6 -1.009,-1.525 -1.509,-3.192 -1.5,-5 -1.052,0.149 -2.052,-0.017 -3,-0.5 -8.259,-7.907 -15.759,-15.74 -22.5,-23.5 -0.333,0.333 -0.667,0.667 -1,1 -6.356,-6.189 -12.523,-12.522 -18.5,-19 4,-3 8,-6 12,-9 0.891,-0.61 1.891,-0.943 3,-1 z"
         id="path62" />
    </g>
    <g
       id="g63"
       transform="matrix(0.26458333,0,0,0.26458333,-62.828884,13.894257)"
       style="clip-rule:evenodd;fill-rule:evenodd;image-rendering:optimizeQuality;shape-rendering:geometricPrecision;text-rendering:geometricPrecision">
      <path
         style="opacity:1"
         fill="#da81f5"
         d="m 468.5,234.5 c -0.359,1.871 -1.359,3.371 -3,4.5 1.431,0.465 2.597,1.299 3.5,2.5 0.273,1.829 1.107,3.329 2.5,4.5 -0.333,0.333 -0.667,0.667 -1,1 0.948,0.483 1.948,0.649 3,0.5 -0.593,3.096 0.407,5.429 3,7 0.586,-0.209 1.086,-0.543 1.5,-1 1.545,6.43 4.212,12.43 8,18 12.173,6.315 20.673,15.315 25.5,27 -3.333,-0.333 -6.667,-0.667 -10,-1 -0.784,-5.969 -4.451,-9.802 -11,-11.5 -3.832,-2.87 -7.332,-6.037 -10.5,-9.5 -3.1,-7.124 -7.1,-13.791 -12,-20 -0.718,0.951 -1.551,1.117 -2.5,0.5 -2.829,-2.659 -5.829,-5.159 -9,-7.5 -0.886,-0.825 -1.219,-1.825 -1,-3 3.64,-2.973 6.973,-6.306 10,-10 0.667,0 1,-0.333 1,-1 0.667,-0.333 1.333,-0.667 2,-1 z"
         id="path63" />
    </g>
    <g
       id="g64"
       transform="matrix(0.26458333,0,0,0.26458333,-62.828884,13.894257)"
       style="clip-rule:evenodd;fill-rule:evenodd;image-rendering:optimizeQuality;shape-rendering:geometricPrecision;text-rendering:geometricPrecision">
      <path
         style="opacity:1"
         fill="#cecad2"
         d="m 549.5,249.5 c 3.973,12.766 3.806,25.432 -0.5,38 -26.589,30.377 -60.089,46.377 -100.5,48 1,-0.667 2,-1.333 3,-2 3.989,0.384 7.655,-0.283 11,-2 10.025,-2.01 19.692,-5.01 29,-9 11.824,-5.073 22.824,-11.407 33,-19 2.973,-1.647 5.64,-3.647 8,-6 4.708,-3.707 8.708,-8.04 12,-13 1.948,-1.82 2.948,-4.154 3,-7 0.904,-0.709 1.237,-1.709 1,-3 0.838,-0.342 1.172,-1.008 1,-2 0.999,-7.504 0.999,-15.171 0,-23 z"
         id="path64" />
    </g>
    <g
       id="g65"
       transform="matrix(0.26458333,0,0,0.26458333,-62.828884,13.894257)"
       style="clip-rule:evenodd;fill-rule:evenodd;image-rendering:optimizeQuality;shape-rendering:geometricPrecision;text-rendering:geometricPrecision">
      <path
         style="opacity:1"
         fill="#caa9e3"
         d="m 313.5,270.5 c 0.667,1.333 1.333,2.667 2,4 0,1.333 0,2.667 0,4 -1.54,-2.338 -2.206,-5.005 -2,-8 z"
         id="path65" />
    </g>
    <g
       id="g66"
       transform="matrix(0.26458333,0,0,0.26458333,-62.828884,13.894257)"
       style="clip-rule:evenodd;fill-rule:evenodd;image-rendering:optimizeQuality;shape-rendering:geometricPrecision;text-rendering:geometricPrecision">
      <path
         style="opacity:1"
         fill="#b850e1"
         d="m 418.5,273.5 c 5.977,6.478 12.144,12.811 18.5,19 0.333,-0.333 0.667,-0.667 1,-1 6.741,7.76 14.241,15.593 22.5,23.5 0.948,0.483 1.948,0.649 3,0.5 -0.009,1.808 0.491,3.475 1.5,5 2.018,1.85 3.851,3.85 5.5,6 -1.72,1.434 -3.72,2.267 -6,2.5 0.333,0.333 0.667,0.667 1,1 -2.269,0.758 -4.436,0.591 -6.5,-0.5 -1.045,0.873 -1.878,1.873 -2.5,3 -1.915,-0.284 -3.581,0.049 -5,1 -3.307,0.551 -6.64,0.884 -10,1 1.14,-1.301 2.473,-2.468 4,-3.5 -7.544,-7.054 -14.877,-14.387 -22,-22 -1.587,-0.862 -3.254,-1.529 -5,-2 0.333,-0.333 0.667,-0.667 1,-1 -5.959,-6.468 -12.292,-12.301 -19,-17.5 -0.431,-0.793 -0.765,-1.627 -1,-2.5 1.707,-1.509 3.373,-3.009 5,-4.5 4.333,-3.169 9,-5.836 14,-8 z"
         id="path66" />
    </g>
    <g
       id="g67"
       transform="matrix(0.26458333,0,0,0.26458333,-62.828884,13.894257)"
       style="clip-rule:evenodd;fill-rule:evenodd;image-rendering:optimizeQuality;shape-rendering:geometricPrecision;text-rendering:geometricPrecision">
      <path
         style="opacity:1"
         fill="#c469e9"
         d="m 454.5,279.5 c 7.897,3.911 15.897,7.578 24,11 7.47,2.857 15.137,5.19 23,7 3.333,0.333 6.667,0.667 10,1 4.346,-0.166 8.679,10e-4 13,0.5 0.466,1.299 0.466,2.799 0,4.5 -10.176,7.593 -21.176,13.927 -33,19 0.466,-2.126 0.966,-4.46 1.5,-7 -10.978,-8.812 -21.145,-18.478 -30.5,-29 -1.236,-0.746 -2.57,-1.079 -4,-1 0,-1 0,-2 0,-3 -2.473,0.412 -3.806,-0.588 -4,-3 z"
         id="path67" />
    </g>
    <g
       id="g68"
       transform="matrix(0.26458333,0,0,0.26458333,-62.828884,13.894257)"
       style="clip-rule:evenodd;fill-rule:evenodd;image-rendering:optimizeQuality;shape-rendering:geometricPrecision;text-rendering:geometricPrecision">
      <path
         style="opacity:1"
         fill="#cf88f4"
         d="m 472.5,230.5 c -0.011,1.517 -0.677,2.684 -2,3.5 1.325,-0.148 2.492,0.018 3.5,0.5 1.616,4.175 3.616,8.175 6,12 8.334,6.676 16.834,13.176 25.5,19.5 1.587,0.862 3.254,1.529 5,2 -0.333,0.333 -0.667,0.667 -1,1 5.362,4.784 9.195,10.618 11.5,17.5 4.182,1.356 7.682,3.689 10.5,7 0.929,1.189 1.262,2.522 1,4 -2.36,2.353 -5.027,4.353 -8,6 0.466,-1.701 0.466,-3.201 0,-4.5 -4.321,-0.499 -8.654,-0.666 -13,-0.5 -4.827,-11.685 -13.327,-20.685 -25.5,-27 -3.788,-5.57 -6.455,-11.57 -8,-18 -0.414,0.457 -0.914,0.791 -1.5,1 -2.593,-1.571 -3.593,-3.904 -3,-7 -1.052,0.149 -2.052,-0.017 -3,-0.5 0.333,-0.333 0.667,-0.667 1,-1 -1.393,-1.171 -2.227,-2.671 -2.5,-4.5 -0.903,-1.201 -2.069,-2.035 -3.5,-2.5 1.641,-1.129 2.641,-2.629 3,-4.5 1,-1.667 2.333,-3 4,-4 z"
         id="path68" />
    </g>
    <g
       id="g69"
       transform="matrix(0.26458333,0,0,0.26458333,-62.828884,13.894257)"
       style="clip-rule:evenodd;fill-rule:evenodd;image-rendering:optimizeQuality;shape-rendering:geometricPrecision;text-rendering:geometricPrecision">
      <path
         style="opacity:1"
         fill="#b143dd"
         d="m 404.5,281.5 c -1.627,1.491 -3.293,2.991 -5,4.5 0.235,0.873 0.569,1.707 1,2.5 6.708,5.199 13.041,11.032 19,17.5 -0.333,0.333 -0.667,0.667 -1,1 1.746,0.471 3.413,1.138 5,2 7.123,7.613 14.456,14.946 22,22 -1.527,1.032 -2.86,2.199 -4,3.5 -8.333,0 -16.667,0 -25,0 -1.459,0.067 -2.792,-0.266 -4,-1 0,-0.333 0,-0.667 0,-1 0.739,0.131 1.406,-0.036 2,-0.5 -5.854,-8.021 -12.854,-14.854 -21,-20.5 -4.333,-5.667 -9.333,-10.667 -15,-15 -0.886,-0.825 -1.219,-1.825 -1,-3 0,-0.333 0,-0.667 0,-1 3.484,-1.157 6.817,-2.49 10,-4 5.807,-2.072 11.473,-4.406 17,-7 z"
         id="path69" />
    </g>
    <g
       id="g70"
       transform="matrix(0.26458333,0,0,0.26458333,-62.828884,13.894257)"
       style="clip-rule:evenodd;fill-rule:evenodd;image-rendering:optimizeQuality;shape-rendering:geometricPrecision;text-rendering:geometricPrecision">
      <path
         style="opacity:1"
         fill="#ededee"
         d="m 533.5,63.5 c 1.935,0.6495 3.935,0.9828 6,1 0,1 0,2 0,3 2.283,0.1079 4.283,0.9412 6,2.5 9.882,9.1085 14.549,20.4419 14,34 -0.407,13.033 -3.24,25.533 -8.5,37.5 -7.326,15.32 -15.159,30.32 -23.5,45 8.594,14.185 16.428,28.852 23.5,44 2.794,7.505 5.127,15.172 7,23 3.865,15.472 1.532,29.806 -7,43 -44.35,42.325 -96.517,56.158 -156.5,41.5 -19.001,-5.361 -36.001,-14.194 -51,-26.5 14.406,8.86 30.073,16.36 47,22.5 54.391,15.494 103.724,5.827 148,-29 17.171,-13.855 22.671,-31.355 16.5,-52.5 -4.999,-21.324 -14.166,-40.324 -27.5,-57 -0.667,0 -1,-0.333 -1,-1 -0.352,-2.928 -1.018,-5.762 -2,-8.5 0.727,-1.399 1.227,-2.899 1.5,-4.5 14.34,-20.014 24.34,-42.014 30,-66 1.614,-8.939 1.281,-17.939 -1,-27 -0.941,-2.2274 -2.108,-4.2274 -3.5,-6 -1.53,-0.7112 -2.863,-1.7112 -4,-3 -0.506,-3.171 -2.172,-5.5043 -5,-7 -1.977,-2.9682 -4.644,-5.3016 -8,-7 -0.333,-0.6667 -0.667,-1.3333 -1,-2 z"
         id="path70" />
    </g>
    <g
       id="g71"
       transform="matrix(0.26458333,0,0,0.26458333,-62.828884,13.894257)"
       style="clip-rule:evenodd;fill-rule:evenodd;image-rendering:optimizeQuality;shape-rendering:geometricPrecision;text-rendering:geometricPrecision">
      <path
         style="opacity:1"
         fill="#dfdee0"
         d="m 527.5,195.5 c 13.334,16.676 22.501,35.676 27.5,57 6.171,21.145 0.671,38.645 -16.5,52.5 -44.276,34.827 -93.609,44.494 -148,29 -16.927,-6.14 -32.594,-13.64 -47,-22.5 -5.893,-3.714 -11.393,-8.047 -16.5,-13 -1.083,-2.767 -2.25,-5.433 -3.5,-8 1.791,1.913 3.791,3.58 6,5 14.419,13.753 31.085,23.753 50,30 2.014,1.692 4.348,3.025 7,4 1.896,0.966 3.896,1.299 6,1 6.504,1.929 13.171,2.929 20,3 1.208,0.734 2.541,1.067 4,1 10.487,0.994 21.154,1.328 32,1 40.411,-1.623 73.911,-17.623 100.5,-48 4.306,-12.568 4.473,-25.234 0.5,-38 -0.844,-3.711 -1.844,-7.377 -3,-11 -2.312,-5.101 -4.145,-10.434 -5.5,-16 -2.041,-4.998 -4.541,-9.664 -7.5,-14 -1.964,-4.314 -3.964,-8.647 -6,-13 z"
         id="path71" />
    </g>
    <g
       id="g72"
       transform="matrix(0.26458333,0,0,0.26458333,-62.828884,13.894257)"
       style="clip-rule:evenodd;fill-rule:evenodd;image-rendering:optimizeQuality;shape-rendering:geometricPrecision;text-rendering:geometricPrecision">
      <path
         style="opacity:1"
         fill="#ab38d9"
         d="m 377.5,293.5 c -0.219,1.175 0.114,2.175 1,3 5.667,4.333 10.667,9.333 15,15 8.146,5.646 15.146,12.479 21,20.5 -0.594,0.464 -1.261,0.631 -2,0.5 -6.65,-0.991 -13.317,-1.991 -20,-3 -4.322,-1.329 -8.655,-2.663 -13,-4 -18.915,-6.247 -35.581,-16.247 -50,-30 2.907,0.075 5.573,0.909 8,2.5 3.833,0.167 7.667,0.333 11.5,0.5 5.752,0.189 11.252,-0.478 16.5,-2 3.881,-1.403 7.881,-2.403 12,-3 z"
         id="path72" />
    </g>
    <g
       id="g73"
       transform="matrix(0.26458333,0,0,0.26458333,-62.828884,13.894257)"
       style="clip-rule:evenodd;fill-rule:evenodd;image-rendering:optimizeQuality;shape-rendering:geometricPrecision;text-rendering:geometricPrecision">
      <path
         style="opacity:1"
         fill="#cdb1d7"
         d="m 379.5,325.5 c 4.345,1.337 8.678,2.671 13,4 0,0.333 0,0.667 0,1 -2.104,0.299 -4.104,-0.034 -6,-1 -2.652,-0.975 -4.986,-2.308 -7,-4 z"
         id="path73" />
    </g>
    <g
       id="g74"
       transform="matrix(0.26458333,0,0,0.26458333,-62.828884,13.894257)"
       style="clip-rule:evenodd;fill-rule:evenodd;image-rendering:optimizeQuality;shape-rendering:geometricPrecision;text-rendering:geometricPrecision">
      <path
         style="opacity:1"
         fill="#bc76d7"
         d="m 392.5,330.5 c 0,-0.333 0,-0.667 0,-1 6.683,1.009 13.35,2.009 20,3 0,0.333 0,0.667 0,1 -6.829,-0.071 -13.496,-1.071 -20,-3 z"
         id="path74" />
    </g>
    <g
       id="g75"
       transform="matrix(0.26458333,0,0,0.26458333,-62.828884,13.894257)"
       style="clip-rule:evenodd;fill-rule:evenodd;image-rendering:optimizeQuality;shape-rendering:geometricPrecision;text-rendering:geometricPrecision">
      <path
         style="opacity:1"
         fill="#c290d7"
         d="m 462.5,331.5 c -3.345,1.717 -7.011,2.384 -11,2 1.419,-0.951 3.085,-1.284 5,-1 1.935,-0.65 3.935,-0.983 6,-1 z"
         id="path75" />
    </g>
    <g
       id="g76"
       transform="matrix(0.26458333,0,0,0.26458333,-62.828884,13.894257)"
       style="clip-rule:evenodd;fill-rule:evenodd;image-rendering:optimizeQuality;shape-rendering:geometricPrecision;text-rendering:geometricPrecision">
      <path
         style="opacity:1"
         fill="#c6a2d4"
         d="m 451.5,333.5 c -1,0.667 -2,1.333 -3,2 -10.846,0.328 -21.513,-0.006 -32,-1 8.333,0 16.667,0 25,0 3.36,-0.116 6.693,-0.449 10,-1 z"
         id="path76" />
    </g>
  </g>
</svg>
