<?xml version="1.0" encoding="utf-8"?>
<!-- Generator: Adobe Illustrator 26.0.2, SVG Export Plug-In . SVG Version: 6.00 Build 0)  -->
<svg version="1.1" id="Layer_1" xmlns="http://www.w3.org/2000/svg" xmlns:xlink="http://www.w3.org/1999/xlink" x="0px" y="0px"
	 viewBox="0 0 24 24" style="enable-background:new 0 0 24 24;" xml:space="preserve">
<style type="text/css">
	.st0{fill:#057093;}
	.st1{fill:#1098B6;}
	.st2{fill:none;}
	.st3{fill:#30CCD7;}
	.st4{fill:#70ECEE;}
	.st5{opacity:0.5;enable-background:new    ;}
	.st6{fill:#FFFFFF;}
</style>
<g id="Color">
	<path class="st0" d="M11,1H7C6.4,1,6,1.4,6,2v20c0,0.6,0.4,1,1,1h4V1z"/>
	<path class="st1" d="M15,1h-4c-0.6,0-1,0.4-1,1v20c0,0.6,0.4,1,1,1h4V1z"/>
	<rect class="st2" width="24" height="24"/>
	<path class="st3" d="M15,1h8c0.6,0,1,0.4,1,1v20c0,0.6-0.4,1-1,1h-8c-0.6,0-1-0.4-1-1V2C14,1.4,14.4,1,15,1z"/>
	<rect x="14" y="8" class="st4" width="10" height="8"/>
	<path class="st5" d="M13.8,6H6v14h7.6c0.7,0,1.3-0.6,1.4-1.4V7.2C15,6.5,14.5,6,13.8,6L13.8,6z"/>
	<path id="Back_Plate" class="st0" d="M1.2,5h11.7C13.5,5,14,5.5,14,6.2v11.7c0,0.6-0.5,1.2-1.2,1.2H1.2C0.5,19,0,18.5,0,17.8V6.2
		C0,5.5,0.5,5,1.2,5z"/>
	<path class="st6" d="M8.4,8.2C8.7,8.4,9,8.6,9.3,8.9c0.2,0.3,0.3,0.6,0.3,1c0,0.4-0.1,0.8-0.4,1.1c-0.3,0.3-0.7,0.6-1.1,0.7l0,0
		c0.4,0,0.7,0.1,1,0.3c0.3,0.2,0.5,0.4,0.6,0.7C9.9,13,10,13.3,10,13.6c0,0.4-0.1,0.9-0.4,1.2c-0.2,0.4-0.6,0.6-1,0.8
		c-0.5,0.2-1,0.3-1.6,0.3h-3V8H7C7.5,8,7.9,8.1,8.4,8.2z M6.6,11.3c0.4,0,0.7-0.1,1-0.3C7.9,10.8,8,10.5,8,10.1c0-0.6-0.4-1-1.3-1
		h-1v2.1L6.6,11.3z M5.6,14.8h1.2c0.4,0,0.8-0.1,1.1-0.3c0.3-0.2,0.4-0.5,0.4-0.9c0-0.3-0.1-0.6-0.4-0.8c-0.3-0.2-0.7-0.3-1.1-0.3
		H5.6V14.8z"/>
</g>
</svg>
