<svg xmlns="http://www.w3.org/2000/svg"  viewBox="0 0 48 48" width="48px" height="48px" baseProfile="basic"><linearGradient id="mwamnGUfX_TpK3yD4X8qOa" x1="-22.253" x2="-17.239" y1="1317.918" y2="1317.988" gradientTransform="scale(5.4556 -5.4556) rotate(12.997 5786.519 767.534)" gradientUnits="userSpaceOnUse"><stop offset="0" stop-color="#8521b0"/><stop offset="1" stop-color="#64129a"/></linearGradient><path fill="url(#mwamnGUfX_TpK3yD4X8qOa)" d="M6.198,11.364l31.467-7.291c1.521-0.352,3.028,0.593,3.379,2.119	l0.844,3.669c0.351,1.527-0.591,3.039-2.112,3.392L8.309,20.545c-1.521,0.352-3.017-0.595-3.379-2.119l-0.849-3.577	C3.705,13.262,4.677,11.717,6.198,11.364L6.198,11.364z"/><linearGradient id="mwamnGUfX_TpK3yD4X8qOb" x1="-14.681" x2="-11.11" y1="1418.59" y2="1417.633" gradientTransform="matrix(5.4556 0 0 -5.4556 91.268 7757.296)" gradientUnits="userSpaceOnUse"><stop offset="0" stop-color="#c965eb"/><stop offset="1" stop-color="#c767e5"/></linearGradient><path fill="url(#mwamnGUfX_TpK3yD4X8qOb)" d="M4,14.162v8.767c0,1.6,1.283,2.888,2.877,2.888H44v-5.296v-0.531	c0-1.564-1.205-2.835-2.738-2.933V17.05H6.877C5.283,17.05,4,15.762,4,14.162L4,14.162z"/><linearGradient id="mwamnGUfX_TpK3yD4X8qOc" x1="-10.879" x2="-8.868" y1="1418.156" y2="1417.617" gradientTransform="matrix(5.4556 0 0 -5.4556 91.268 7757.296)" gradientUnits="userSpaceOnUse"><stop offset="0" stop-color="#ae4cd5"/><stop offset="1" stop-color="#ac4ad5"/></linearGradient><path fill="url(#mwamnGUfX_TpK3yD4X8qOc)" d="M30.295,17.05v8.767H44v-5.296v-0.531	c0-1.564-1.205-2.835-2.738-2.933V17.05L30.295,17.05z"/><linearGradient id="mwamnGUfX_TpK3yD4X8qOd" x1="-13.176" x2="-8.476" y1="1416.623" y2="1416.623" gradientTransform="matrix(5.4556 0 0 -5.4556 91.268 7757.296)" gradientUnits="userSpaceOnUse"><stop offset="0" stop-color="#ae4cd5"/><stop offset="1" stop-color="#ac4ad5"/></linearGradient><path fill="url(#mwamnGUfX_TpK3yD4X8qOd)" d="M4,22.929v9.461c0,0.856,0.367,1.622,0.953,2.15H44v-8.723H6.877 C5.283,25.817,4,24.529,4,22.929L4,22.929z"/><linearGradient id="mwamnGUfX_TpK3yD4X8qOe" x1="-15.371" x2="-13.809" y1="1416.623" y2="1416.623" gradientTransform="matrix(5.4556 0 0 -5.4556 91.268 7757.296)" gradientUnits="userSpaceOnUse"><stop offset="0" stop-color="#c965eb"/><stop offset="1" stop-color="#c767e5"/></linearGradient><path fill="url(#mwamnGUfX_TpK3yD4X8qOe)" d="M4,22.929v9.461c0,0.856,0.367,1.622,0.953,2.15h12.776v-8.723 H6.877C5.283,25.817,4,24.529,4,22.929L4,22.929z"/><linearGradient id="mwamnGUfX_TpK3yD4X8qOf" x1="-15.568" x2="-9.883" y1="1414.957" y2="1414.957" gradientTransform="matrix(5.4556 0 0 -5.4556 91.268 7757.296)" gradientUnits="userSpaceOnUse"><stop offset="0" stop-color="#8521b0"/><stop offset="1" stop-color="#64129a"/></linearGradient><path fill="url(#mwamnGUfX_TpK3yD4X8qOf)" d="M4,31.652v9.461C4,42.712,5.283,44,6.877,44h34.246	C42.717,44,44,42.712,44,41.112v-6.573H6.877C5.283,34.539,4,33.252,4,31.652L4,31.652z"/><path d="M23.75,17l3.852-0.95H6.877C5.842,16.05,5,15.203,5,14.162H4c0,1.6,1.283,2.888,2.877,2.888h16.993	L23.75,17z" opacity=".05"/><path d="M23.75,17l1.825-0.45H6.877c-1.311,0-2.377-1.071-2.377-2.388H4c0,1.6,1.283,2.888,2.877,2.888	h16.993L23.75,17z" opacity=".07"/></svg>